<?xml version="1.0" standalone="no"?>
<!DOCTYPE svg PUBLIC "-//W3C//DTD SVG 1.1//EN" "http://www.w3.org/Graphics/SVG/1.1/DTD/svg11.dtd" >
<svg>
<metadata>
Created by FontForge 20090914 at Mon Jun 23 22:03:06 2014
 By www-data
(C) "ATRI",Graphic Bureau "Az-Zet"(R),V.Kuchmin,21.07.92
</metadata>
<defs>
<font id="Avanti" horiz-adv-x="1565" >
  <font-face 
    font-family="Avanti"
    font-weight="400"
    font-stretch="normal"
    units-per-em="4096"
    panose-1="2 11 114 0 0 0 0 0 0 0"
    ascent="3276"
    descent="-820"
    x-height="2245"
    cap-height="3031"
    bbox="-188 -876.997 4448 3817"
    underline-thickness="58"
    underline-position="-67"
    unicode-range="U+0020-U+F002"
  />
<missing-glyph horiz-adv-x="3072" 
d="M512 0v2560h2048v-2560h-2048zM2494 66v2428h-1916v-2428h1916z" />
    <glyph glyph-name=".notdef" horiz-adv-x="3072" 
d="M512 0v2560h2048v-2560h-2048zM2494 66v2428h-1916v-2428h1916z" />
    <glyph glyph-name="space" unicode=" " 
 />
    <glyph glyph-name="exclam" unicode="!" horiz-adv-x="1425" 
d="M459 0v516h303v-516h-303zM459 795v2236h303v-2236h-303z" />
    <glyph glyph-name="quotedbl" unicode="&#x22;" horiz-adv-x="1327" 
d="M303 2105v926h213v-926h-213zM762 2105v926h213v-926h-213z" />
    <glyph glyph-name="numbersign" unicode="#" horiz-adv-x="2417" 
d="M328 0l303 1024h-606l65 238h615l147 507h-614l65 238h623l295 1024h172l-295 -1024h368l303 1024h164l-295 -1024h615l-66 -238h-622l-148 -507h615l-66 -238h-623l-294 -1024h-181l303 1024h-368l-303 -1024h-172zM877 1262h368l148 507h-369z" />
    <glyph glyph-name="dollar" unicode="$" horiz-adv-x="2327" 
d="M1008 -221l-0.000976562 343.996c-124.667 18.667 -240.667 64.334 -348 137.001s-192.333 163.834 -255 273.501s-94 226.834 -94 351.501v49h287c0 -2 -1.33301 -7.33301 -4 -16s-4 -14.334 -4 -17.001c0 -95.333 25.5 -182.5 76.5 -261.5s118.5 -141.167 202.5 -186.5
s174 -68 270 -68c144.667 0 269.5 50.5 374.5 151.5s157.5 222.5 157.5 364.5c0 171.333 -47 299.5 -141 384.5s-230 150.833 -408 197.5c-130 40 -233 76.833 -309 110.5s-145 81.5 -207 143.5c-136.667 136.667 -205 308.667 -205 516c0 120.667 25.333 231.834 76 333.5
c50.667 101.667 122 186.167 214 253.5s197.667 112 317 134v336h262v-336c128.667 -18.667 243 -62.334 343 -131c100 -68.667 177.5 -155.834 232.5 -261.5c55 -105.667 84.167 -223.5 87.5 -353.5h-286c0 140.667 -46.167 256.5 -138.5 347.5
s-210.166 136.5 -353.499 136.5c-116.667 0 -217.667 -35.667 -303 -107c-104 -82.667 -156 -205.667 -156 -369c0 -148 40.667 -254.167 122 -318.5s204.666 -119.166 369.999 -164.499c258 -78 438.333 -168 541 -270c76.667 -72.667 135.334 -159.167 176.001 -259.5
s61 -205.166 61 -314.499c0 -128 -30.833 -251.167 -92.5 -369.5s-146 -215.333 -253 -291s-223.833 -117.5 -350.5 -125.5v-344h-262z" />
    <glyph glyph-name="percent" unicode="%" horiz-adv-x="3228" 
d="M745 0l1360 3031h295l-1360 -3031h-295zM778 3080c131.333 0 250.832 -32.5 358.499 -97.5s192.334 -152.667 254.001 -263s92.5 -230.5 92.5 -360.5c0 -126 -32.5 -243.667 -97.5 -353s-152.667 -196.5 -263 -261.5s-227.833 -97.5 -352.5 -97.5
c-125.333 0 -243 32.5 -353 97.5s-197.5 152.833 -262.5 263.5s-97.5 230.334 -97.5 359c0 134 31.5 255.5 94.5 364.5s149.333 194.333 259 256s232.167 92.5 367.5 92.5zM777.999 2785c-126.667 0 -230.666 -38.834 -311.999 -116.501s-122 -178.167 -122 -301.5
c0 -118 42.167 -219.833 126.5 -305.5s184.166 -128.5 299.499 -128.5c77.333 0 148 20.333 212 61s114.333 95.667 151 165.001c36.667 69.333 55 144.333 55 225c0 111.333 -39.5 206 -118.5 284s-176.167 117 -291.5 117zM2376 1384
c99.333 0 192.164 -19.166 278.498 -57.499c86.333 -38.333 161.333 -91.5 225 -159.5s113 -146 148 -234s52.5 -180.667 52.5 -278c0 -128 -32.333 -246.667 -97 -356s-151.667 -196 -261 -260s-227.666 -96 -354.999 -96c-125.333 0 -242.833 32.5 -352.5 97.5
s-197 152.333 -262 262s-97.5 227.167 -97.5 352.5c0 134.667 31.333 257.667 94 369s149.334 199.166 260.001 263.499s233 96.5 367 96.5zM2376 1098c-125.333 0 -229.001 -42.666 -311.001 -127.999s-123 -190.333 -123 -315c0 -76 19.333 -146.167 58 -210.5
s90.834 -114.833 156.501 -151.5s135.834 -55 210.5 -55c122 0 223.5 42.333 304.5 127s121.5 187 121.5 307c0 115.333 -40.833 215.166 -122.5 299.499s-179.834 126.5 -294.5 126.5z" />
    <glyph glyph-name="ampersand" unicode="&#x26;" horiz-adv-x="3269" 
d="M2466 1966l344 -0.00292969l-565 -1065l770 -745l-222 -213l-688 680c-70.667 -139.333 -149 -258.833 -235 -358.5s-187 -178.167 -303 -235.5s-248 -86 -396 -86c-168.667 0 -324.5 42.5 -467.5 127.5s-256.333 199.833 -340 344.5s-125.5 301.334 -125.5 470.001
c0 200.667 63.833 376.834 191.5 528.501s290.5 275.834 488.5 372.501c-108.667 108.667 -189.167 209.167 -241.5 301.5s-78.5 202.166 -78.5 329.5c0 117.333 33.667 226.5 101 327.5s155.333 181.333 264 241s222 91.167 340 94.5c133.333 -3.33301 257 -36.333 371 -99
s204.833 -149 272.5 -259s101.5 -231 101.5 -363c0 -158 -56.333 -294.333 -169 -409s-253 -205 -421 -271l574 -565zM1147 1556l-131 -72.999c-150 -74 -266.667 -159.333 -350 -256s-125 -219 -125 -367c0 -106.667 27.667 -208.167 83 -304.5s129.5 -173.333 222.5 -231
s193.167 -86.5 300.5 -86.5c122.667 0 228.667 27 318 81s164.5 123.667 225.5 209s122.833 190.666 185.5 315.999zM1745 2400c0 107.333 -44.168 198.333 -132.501 273s-186.166 112 -293.499 112c-113.333 0 -211.333 -36.167 -294 -108.5s-124 -164.5 -124 -276.5
c0 -48 9.83301 -94.333 29.5 -139s45.667 -87.334 78 -128c32.333 -40.667 67 -79.334 104 -116l116.5 -116c344 126 516 292.333 516 499z" />
    <glyph glyph-name="quotesingle" unicode="'" horiz-adv-x="999" 
d="M303 2105v926h205v-926h-205z" />
    <glyph glyph-name="parenleft" unicode="(" horiz-adv-x="1712" 
d="M1376 3031v-262.002c-124 -70 -238.833 -160.667 -344.5 -272s-195.834 -235 -270.501 -371s-131.5 -278 -170.5 -426s-58.5 -294 -58.5 -438l9 -17l-9 -24c0 -186.667 35.667 -376.5 107 -569.5s171.5 -369.5 300.5 -529.5s274.5 -285.333 436.5 -376v-270
c-143.333 38 -285.666 120.333 -426.999 247s-263.666 265.334 -366.999 416.001c-112 165.333 -197.333 342.333 -256 531s-88 380.334 -88 575.001c0 396.667 106.333 762.667 319 1098c104 160.667 227.667 306 371 436s292.666 214 447.999 252z" />
    <glyph glyph-name="parenright" unicode=")" horiz-adv-x="1475" 
d="M139 -524l-0.00292969 270.002c126.667 70.667 241.834 161.167 345.501 271.5s192 233.166 265 368.499s128.833 276.666 167.5 423.999s58 292.333 58 435c0 200 -33.333 398 -100 594s-163.5 374.667 -290.5 536s-275.5 290 -445.5 386v270
c160 -45.333 310.333 -131.166 451 -257.499s263.334 -269.833 368.001 -430.5c213.333 -322.667 320 -688.667 320 -1098c0 -405.333 -114.667 -774 -344 -1106c-103.333 -150.667 -225.666 -289.334 -366.999 -416.001s-284 -209 -428 -247z" />
    <glyph glyph-name="asterisk" unicode="*" horiz-adv-x="1753" 
d="M1475 2597v-213h-410l221 -361l-188 -114l-221 368l-213 -368l-197 114l221 361h-426v213h426l-221 369l197 114l213 -368l221 368l188 -114l-221 -369h410z" />
    <glyph glyph-name="plus" unicode="+" horiz-adv-x="2515" 
d="M1090 1401v868h311v-868h876v-311h-876v-885h-311v885h-877v311h877z" />
    <glyph glyph-name="comma" unicode="," horiz-adv-x="1475" 
d="M377 -279l360 795h303l-360 -795h-303z" />
    <glyph glyph-name="hyphen" unicode="-" horiz-adv-x="1376" 
d="M131 1368h1106v-270h-1106v270z" />
    <glyph glyph-name="period" unicode="." horiz-adv-x="1139" 
d="M418 0v516h303v-516h-303z" />
    <glyph glyph-name="slash" unicode="/" horiz-adv-x="1802" 
d="M164 -524l1188 3555h278l-1196 -3555h-270z" />
    <glyph glyph-name="zero" unicode="0" horiz-adv-x="2277" 
d="M123 1155l0.000976562 787c0 166 16.5 308.333 49.5 427s95.5 235.667 187.5 351c94.667 114.667 210.334 203.334 347.001 266c136.667 62.667 280.667 94 432 94c145.333 0 282.833 -28.333 412.5 -85s240.5 -137.334 332.5 -242
c99.333 -107.333 169.166 -227.5 209.499 -360.5s60.5 -283.167 60.5 -450.5v-787c0 -182.667 -14.167 -338.667 -42.5 -468s-87.833 -252 -178.5 -368c-208.667 -250.667 -473.334 -376 -794.001 -376c-312 0 -571.667 120 -779 360c-98 117.333 -162 241.5 -192 372.5
s-45 290.833 -45 479.5zM1851 1204l-0.000976562 663.999c0 284 -43.667 491.333 -131 622c-60 89.333 -143.5 160.833 -250.5 214.5s-217.167 80.5 -330.5 80.5c-121.333 0 -238.666 -31.167 -351.999 -93.5s-198.333 -145.833 -255 -250.5
c-70.667 -122 -106 -313 -106 -573v-664c0 -146 8.16699 -274.167 24.5 -384.5s51.833 -206.166 106.5 -287.499c142 -196 336 -294 582 -294c271.333 0 473.333 111.667 606 335c70.667 124 106 334.333 106 631z" />
    <glyph glyph-name="one" unicode="1" horiz-adv-x="2277" 
d="M1147 0v2753h-508v278h811v-3031h-303z" />
    <glyph glyph-name="two" unicode="2" horiz-adv-x="2277" 
d="M139 0v270l1155 1114c149.333 144 265.833 273.667 349.5 389s125.5 242.333 125.5 381c0 120 -29.833 228 -89.5 324s-140.5 171.167 -242.5 225.5s-212.333 81.5 -331 81.5c-72 0 -143.833 -12.833 -215.5 -38.5s-137 -61.834 -196 -108.5
c-59 -46.667 -107.5 -101.334 -145.5 -164c-60 -112.667 -90 -232.667 -90 -360c0 -6 1.33301 -17.333 4 -34s4 -27.334 4 -32h-303c0 5.33301 -1.33301 15 -4 29s-4 23.333 -4 28c0 180.667 42 345.667 126 495s200.333 266.666 349 352c148.667 85.333 315 128 499 128
c256.667 0 475.334 -90 656.001 -270c191.333 -182.667 287 -398.334 287 -647c0 -140 -25.833 -266.5 -77.5 -379.5s-114.334 -210.667 -188.001 -293s-179.167 -188.833 -316.5 -319.5l-934 -892h1499v-279h-1917z" />
    <glyph glyph-name="three" unicode="3" horiz-adv-x="2277" 
d="M647 2277l-303.002 0.00195312c0 148 32 283.167 96 405.5s154.667 219.166 272 290.5c117.333 71.333 251.333 107 402 107c138 0 264.833 -34.833 380.5 -104.5s206.834 -164.334 273.501 -284c66.667 -119.667 100 -249.5 100 -389.5
c0 -120.667 -25.667 -225.334 -77 -314.001s-129.666 -172.334 -234.999 -251.001c101.333 -44.667 190.666 -109.5 267.999 -194.5s136.666 -181.333 177.999 -289s62 -216.834 62 -327.501c0 -176.667 -43.5 -340.667 -130.5 -492s-205.333 -271 -355 -359
s-312.5 -132 -488.5 -132c-172 0 -331.667 45.167 -479 135.5s-264.166 210.5 -350.499 360.5s-129.5 309.667 -129.5 479c0 2.66699 1.33301 8 4 16s4 13.333 4 16h303c11.333 -170.667 44.333 -301.667 99 -393c66 -96 146 -173.167 240 -231.5s194 -87.5 300 -87.5
c126.667 0 241.834 30.333 345.501 91s185.334 143.334 245.001 248.001s89.5 218.334 89.5 341.001c0 142 -41.833 271.167 -125.5 387.5s-191.834 197.166 -324.501 242.499c-82 27.333 -186 41 -312 41h-98v271l107 -9c159.333 0 292 40.333 398 121s159 199 159 355
c0 87.333 -20.667 166.166 -62 236.5c-41.333 70.333 -98.5 124.833 -171.5 163.5s-153.5 58 -241.5 58c-90 0 -168.5 -23.5 -235.5 -70.5s-118.333 -109.5 -154 -187.5s-53.5 -161.333 -53.5 -250z" />
    <glyph glyph-name="four" unicode="4" horiz-adv-x="2277" 
d="M1581 0v557h-1532v270l1467 2204h368v-2204h279v-270h-279v-557h-303zM1581 827v1786l-1171 -1786h1171z" />
    <glyph glyph-name="five" unicode="5" horiz-adv-x="2277" 
d="M270 1540l279.001 1491h1368v-278h-1122l-156 -836c170 98 342 147 516 147c186 0 356.167 -48.167 510.5 -144.5s275.833 -225.833 364.5 -388.5s133 -337 133 -523c0 -140.667 -25.167 -275 -75.5 -403s-121.833 -242 -214.5 -342s-201.167 -178.333 -325.5 -235
s-257.833 -85 -400.5 -85c-141.333 0 -273 25.667 -395 77s-229.667 123.166 -323 215.499s-167.833 200 -223.5 323s-88.834 253.5 -99.501 391.5h304c8 -124.667 44 -241.834 108 -351.501s149.5 -197.167 256.5 -262.5s225.5 -98 355.5 -98c137.333 0 262 34.667 374 104
s199.333 162.666 262 279.999s94 243 94 377c0 134.667 -31.167 261.334 -93.5 380.001s-149 213.334 -260 284.001s-233.5 106 -367.5 106c-120 0 -234.667 -28.833 -344 -86.5s-202.333 -135.167 -279 -232.5z" />
    <glyph glyph-name="six" unicode="6" horiz-adv-x="2277" 
d="M1212 3031l353 0.000976562l-721 -1065c103.333 60 223.333 90 360 90c135.333 0 262 -28.833 380 -86.5s221 -136.5 309 -236.5s156.333 -212.833 205 -338.5s73 -254.5 73 -386.5c0 -132.667 -26 -263.334 -78 -392.001s-124.333 -244 -217 -346
c-210 -218 -458.667 -327 -746 -327c-186 0 -357.667 48.333 -515 145s-281.5 226.5 -372.5 389.5s-136.5 336.833 -136.5 521.5c0 124.667 16.5 238 49.5 340s68.833 186.167 107.5 252.5s115 188.5 229 366.5zM1130 1769c-132.667 0 -254.332 -34 -364.999 -102
s-197.5 -159 -260.5 -273s-94.5 -237.333 -94.5 -370c0 -138 30.667 -267.5 92 -388.5s147.166 -217.5 257.499 -289.5s233.833 -108 370.5 -108c133.333 0 256.666 34.667 369.999 104s203 162.833 269 280.5s99 243.167 99 376.5c0 136 -32 263 -96 381
s-152.667 212.333 -266 283s-238.666 106 -375.999 106z" />
    <glyph glyph-name="seven" unicode="7" horiz-adv-x="2277" 
d="M442 0l1246 2753h-1426v278h1745v-278l-1237 -2753h-328z" />
    <glyph glyph-name="eight" unicode="8" horiz-adv-x="2277" 
d="M688 1696c-114.667 55.333 -202.001 136.5 -262.001 243.5s-90 227.833 -90 362.5c0 148 36.333 281.5 109 400.5s171.334 211.667 296.001 278s260 99.5 406 99.5s280 -35.833 402 -107.5s218 -169.167 288 -292.5s105 -257.666 105 -402.999
c0 -125.333 -32.167 -241.5 -96.5 -348.5s-152.5 -184.5 -264.5 -232.5c101.333 -45.333 191.333 -109.333 270 -192s139.334 -177.167 182.001 -283.5s64 -215.5 64 -327.5c0 -130 -25.833 -253.333 -77.5 -370s-122.834 -218.334 -213.501 -305.001
s-195 -154.167 -313 -202.5s-241.667 -72.5 -371 -72.5c-169.333 0 -327 42.833 -473 128.5s-262 201.5 -348 347.5s-129 304 -129 474c0 166 48.5 327.5 145.5 484.5s220.5 263.167 370.5 318.5zM1130 1532c-118.667 0 -228.5 -29.334 -329.5 -88.001
s-180.5 -138.5 -238.5 -239.5s-87 -210.167 -87 -327.5s29.167 -224.833 87.5 -322.5s137.5 -174.834 237.5 -231.501s207.333 -85 322 -85c122 0 234.833 28.833 338.5 86.5s185.167 136.834 244.5 237.501s89 211 89 331c0 119.333 -30.333 227.833 -91 325.5
s-142.167 174.334 -244.5 230.001s-211.833 83.5 -328.5 83.5zM1147 2785c-87.333 0 -170.168 -19.834 -248.501 -59.501s-141.166 -95 -188.499 -166s-71 -151.5 -71 -241.5c0 -142.667 48.833 -261.5 146.5 -356.5s218.167 -142.5 361.5 -142.5
c84.667 0 164.667 22.167 240 66.5s136 103.833 182 178.5s69 154 69 238c0 134.667 -47.833 248.834 -143.5 342.501s-211.5 140.5 -347.5 140.5z" />
    <glyph glyph-name="nine" unicode="9" horiz-adv-x="2277" 
d="M1065 0l-352.003 0.000976562l712 1065c-100.667 -65.333 -220.667 -98 -360 -98c-175.333 0 -336.666 50.5 -483.999 151.5s-263.333 233.333 -348 397s-127 332.834 -127 507.501c0 132.667 26.167 263.834 78.5 393.5c52.333 129.667 124.5 244.5 216.5 344.5
c196.667 212.667 445.334 319 746.001 319c184 0 354.667 -48.333 512 -145s282 -225.667 374 -387s138 -333.333 138 -516c0 -124.667 -16.5 -238.334 -49.5 -341.001s-72.667 -192.834 -119 -270.501s-121.166 -193.5 -224.499 -347.5zM409.997 2032l0.00195312 -17
c0 -124.667 34 -245.5 102 -362.5s156.833 -211.333 266.5 -283s221.5 -107.5 335.5 -107.5l25 8c2.66699 0 6.66699 -1.33301 12 -4s9.33301 -4 12 -4c127.333 0 245.166 34.333 353.499 103s194 160.5 257 275.5s94.5 237.167 94.5 366.5
c0 137.333 -31.333 265.5 -94 384.5s-150 214.333 -262 286s-236.333 107.5 -373 107.5c-130.667 0 -252.834 -34.5 -366.501 -103.5s-204 -161.167 -271 -276.5s-100.5 -237 -100.5 -365z" />
    <glyph glyph-name="colon" unicode=":" horiz-adv-x="1188" 
d="M418 0v516h303v-516h-303zM418 1573v516h303v-516h-303z" />
    <glyph glyph-name="semicolon" unicode=";" horiz-adv-x="1237" 
d="M172 -279l360 795h304l-361 -795h-303zM532 1573v516h304v-516h-304z" />
    <glyph glyph-name="less" unicode="&#x3c;" horiz-adv-x="2605" 
d="M590 1237l1696 -786v-295l-2081 950v262l2081 950v-303z" />
    <glyph glyph-name="equal" unicode="=" horiz-adv-x="2515" 
d="M2277 1786v-303h-2064v303h2064zM2277 991v-311h-2064v311h2064z" />
    <glyph glyph-name="greater" unicode="&#x3e;" horiz-adv-x="2515" 
d="M197 451l1695 786l-1695 778v303l2089 -950v-262l-2089 -950v295z" />
    <glyph glyph-name="question" unicode="?" horiz-adv-x="2466" 
d="M1081 0v516h303v-516h-303zM557 2081l-286.997 0.000976562v90c0 112 25.5 225.167 76.5 339.5s118.5 211.5 202.5 291.5c89.333 89.333 194 158 314 206s244.667 72 374 72c172 0 328 -40.5 468 -121.5s249.833 -192.333 329.5 -334s119.5 -298.5 119.5 -470.5
c0 -139.333 -32 -257.833 -96 -355.5s-158.5 -207 -283.5 -328s-220.167 -229.833 -285.5 -326.5s-100.333 -213 -105 -349h-303l-8 16c0 271.333 144.667 541.666 434 810.999c120 108 207.333 200.167 262 276.5s82 172.5 82 288.5c0 108.667 -29.833 208.834 -89.5 300.5
c-59.667 91.667 -138.334 164.167 -236.001 217.5s-199.167 80 -304.5 80h-9l-16 -8c-114.667 0 -221.834 -30.5 -321.501 -91.5s-178.834 -142.167 -237.501 -243.5s-88 -208 -88 -320c0 -2 1.33301 -8.66699 4 -20s4 -18.333 4 -21z" />
    <glyph glyph-name="at" unicode="@" horiz-adv-x="3555" 
d="M2949 721l245.998 0.000976562c-64 -116.667 -143.833 -222.5 -239.5 -317.5s-203.334 -176.5 -323.001 -244.5s-245.167 -119.667 -376.5 -155s-263.333 -53 -396 -53c-288 0 -552 70.5 -792 211.5s-428.833 332.667 -566.5 575s-206.5 507.166 -206.5 794.499
c0 280 70.333 539 211 777s331.334 426 572.001 564s501.334 207 782.001 207c115.333 0 230.833 -13.333 346.499 -40c115.667 -26.667 226.834 -66.5 333.501 -119.5s204.667 -117.167 294 -192.5c144 -127.333 252.5 -269.666 325.5 -426.999
s109.5 -331.666 109.5 -522.999c0 -281.333 -82 -532.666 -246 -753.999c-92 -134 -198.833 -242.667 -320.5 -326s-255.167 -125 -400.5 -125c-74.667 0 -146 18.167 -214 54.5s-114 89.166 -138 158.499c-59.333 -63.333 -133.833 -113.166 -223.5 -149.499
s-179.167 -54.5 -268.5 -54.5c-112.667 0 -212.834 27.5 -300.501 82.5s-155 129 -202 222s-70.5 196.167 -70.5 309.5c0 190 43.667 382.667 131 578s209.5 356.666 366.5 483.999s332.5 191 526.5 191c98.667 0 190 -23.333 274 -70s145.333 -113.334 184 -200l66 188h279
l-418 -1245c-38.667 -88 -58 -159 -58 -213c0 -34.667 12.333 -63.834 37 -87.501s53.334 -35.5 86.001 -35.5c86.667 0 176 34.5 268 103.5s169.333 146.5 232 232.5c136.667 197.333 205 421.333 205 672c0 162.667 -33 311.834 -99 447.501s-156 251.5 -270 347.5
s-243.833 169.167 -389.5 219.5s-297.167 75.5 -454.5 75.5c-247.333 0 -474.5 -63 -681.5 -189s-370.333 -295.333 -490 -508s-179.5 -442 -179.5 -688c0 -242.667 61.167 -467.167 183.5 -673.5s288 -369.5 497 -489.5s435.5 -180 679.5 -180
c142.667 0 281.834 22.667 417.501 68s261.167 110.666 376.5 195.999s213.666 185.666 295 300.999zM1516 844.001c97.333 0 187.333 35.501 270 106.501s151 155.5 205 253.5c142 285.333 213 520.333 213 705c0 50 -12.5 97.833 -37.5 143.5s-59.5 82.334 -103.5 110.001
s-92.667 41.5 -146 41.5c-138 0 -262 -53.333 -372 -160s-195.667 -237.834 -257 -393.501s-92 -298.834 -92 -429.501c0 -104 28.833 -192.833 86.5 -266.5s135.5 -110.5 233.5 -110.5z" />
    <glyph glyph-name="A" unicode="A" horiz-adv-x="3031" 
d="M49 0l1303 3031h336l1302 -3031h-328l-442 1016h-1409l-434 -1016h-328zM934 1294h1171l-581 1385z" />
    <glyph glyph-name="B" unicode="B" horiz-adv-x="2564" 
d="M311 0v3031h713c144 0 270.833 -10.167 380.5 -30.5s212.167 -62.166 307.5 -125.5c107.333 -69.333 192.833 -162.166 256.5 -278.5c63.667 -116.333 95.5 -239.166 95.5 -368.5c0 -250 -111.667 -452 -335 -606c157.333 -64 279.833 -163.5 367.5 -298.5
s131.5 -289.5 131.5 -463.5c0 -93.333 -14.667 -183.833 -44 -271.5s-71.833 -168.167 -127.5 -241.5s-121.167 -134.333 -196.5 -183c-85.333 -51.333 -171.333 -88.166 -258 -110.499s-163 -35.666 -229 -39.999s-182.333 -8.83301 -349 -13.5h-713zM614 278.998
l377 -0.000976562c18.667 0 43.334 -1.5 74.001 -4.5s52.334 -4.5 65.001 -4.5c209.333 0 376 33 500 99c86 44.667 156.667 112.834 212 204.501s83 184.5 83 278.5c0 86.667 -15.333 166.5 -46 239.5s-74.334 136 -131.001 189s-123.334 93.167 -200.001 120.5
c-114 38 -277.667 57 -491 57h-443v-1179zM614 1737l327.998 -0.000976562c8.66699 0 22.334 -1.33301 41.001 -4s32.334 -4 41.001 -4c216.667 0 380.667 32.667 492 98c72 36 130.833 93.667 176.5 173s68.5 161 68.5 245c0 82 -22 161.833 -66 239.5
s-101 136.834 -171 177.501c-94 60.667 -238.667 91 -434 91h-476v-1016z" />
    <glyph glyph-name="C" unicode="C" horiz-adv-x="3416" 
d="M3146 2253h-336.005c-74 111.333 -168 207.166 -282 287.5c-114 80.333 -238.333 141.166 -373 182.5c-134.667 41.333 -268.667 62 -402 62c-168.667 0 -330.167 -33.833 -484.5 -101.5s-290.666 -161.167 -408.999 -280.5s-210.666 -255.166 -276.999 -407.5
c-66.333 -152.333 -99.5 -309.5 -99.5 -471.5c0 -228 59 -441.333 177 -640s276.167 -356 474.5 -472s409.833 -174 634.5 -174c134.667 0 267.334 22.833 398.001 68.5s252.5 111.167 365.5 196.5s208.167 182.666 285.5 291.999h336
c-85.333 -166 -200.166 -313.833 -344.5 -443.5c-144.333 -129.667 -307 -230.167 -488 -301.5s-365.167 -107 -552.5 -107c-289.333 0 -555.833 69.5 -799.5 208.5s-436.167 329.833 -577.5 572.5s-212 509.334 -212 800.001c0 280 70.333 539.667 211 779
s331.334 428.666 572.001 568c240.667 139.333 501.334 209 782.001 209c326 0 618 -84.667 876 -254c106.667 -68.667 211.5 -156 314.5 -262s173.167 -209.667 210.5 -311z" />
    <glyph glyph-name="D" unicode="D" horiz-adv-x="3129" 
d="M311 0l-0.000976562 3031h819c246.667 -4.66699 465.334 -32.167 656.001 -82.5s368 -140.166 532 -269.5c112.667 -94 210.667 -203.5 294 -328.5s146.666 -258.667 190 -401c43.333 -142.333 65 -284.166 65 -425.499c0 -108.667 -11 -215.167 -33 -319.5
s-54.167 -205 -96.5 -302s-93.666 -188.167 -154 -273.5c-60.333 -85.333 -129.5 -164 -207.5 -236c-168.667 -152.667 -350.667 -256.334 -546 -311.001s-423 -82 -683 -82h-836zM613.999 279h394c166.667 0 306.334 5 419.001 15s226.667 35.5 342 76.5
s224.666 103.167 327.999 186.5c150 117.333 265.333 259.5 346 426.5s121 347.167 121 540.5c0 392.667 -155.667 712 -467 958c-139.333 102.667 -287 173.5 -443 212.5s-333.333 58.5 -532 58.5h-508v-2474z" />
    <glyph glyph-name="E" unicode="E" horiz-adv-x="2228" 
d="M311 0v3031h1655v-278h-1352v-1090h1311v-270h-1311v-1114h1352v-279h-1655z" />
    <glyph glyph-name="F" unicode="F" horiz-adv-x="2040" 
d="M311 0v3031h1540v-278h-1237v-1090h1188v-279h-1188v-1384h-303z" />
    <glyph glyph-name="G" unicode="G" horiz-adv-x="3654" 
d="M1352 1401l2056 -0.00390625c-18.667 -272 -103.667 -519.5 -255 -742.5s-347.166 -398 -587.5 -525c-240.333 -127 -494.833 -190.5 -763.5 -190.5c-284.667 0 -552 70.833 -802 212.5s-449.167 334.5 -597.5 578.5s-222.5 510 -222.5 798
c0 196 42.167 389.5 126.5 580.5s197.833 357.833 340.5 500.5c159.333 155.333 336.833 272 532.5 350s403.167 117 622.5 117c329.333 0 627 -87.333 893 -262c114 -75.333 221.5 -166.5 322.5 -273.5s168.167 -215.167 201.5 -324.5h-344
c-69.333 117.333 -160.666 218.666 -274 304c-113.333 85.333 -239.5 150.166 -378.5 194.5c-139 44.333 -279.167 66.5 -420.5 66.5c-353.333 0 -653.666 -112 -900.999 -336c-80.667 -74.667 -153.167 -163.167 -217.5 -265.5s-113.833 -210.166 -148.5 -323.499
s-52 -225.333 -52 -336c0 -179.333 35.167 -348.166 105.5 -506.499s167.666 -295.833 291.999 -412.5s267.333 -207 429 -271s331.5 -96 509.5 -96s351.833 37.333 521.5 112s316.5 179.334 440.5 314.001s210 287.334 258 458.001h-1687v279z" />
    <glyph glyph-name="H" unicode="H" horiz-adv-x="2802" 
d="M311 0v3031h303v-1335h1573v1335h303v-3031h-303v1425h-1573v-1425h-303z" />
    <glyph glyph-name="I" unicode="I" horiz-adv-x="950" 
d="M311 0v3031h303v-3031h-303z" />
    <glyph glyph-name="J" unicode="J" horiz-adv-x="1950" 
d="M1663 3031l0.00195312 -2179l-10 -178.5c-2.66699 -49.667 -8.5 -98.5 -17.5 -146.5s-24.333 -95.333 -46 -142s-51.834 -93 -90.501 -139c-160 -202 -375.667 -303 -647 -303c-145.333 0 -279 34.167 -401 102.5s-218.833 161.5 -290.5 279.5s-108.834 250 -111.501 396
h295c12.667 -142.667 70 -258.834 172 -348.501s225 -134.5 369 -134.5c98 0 186.833 27 266.5 81s138.167 128 175.5 222c22 72 33 167.333 33 286v2204h303z" />
    <glyph glyph-name="K" unicode="K" horiz-adv-x="2564" 
d="M311 0v3031h303v-1745l1401 1745h385l-1196 -1475l1196 -1556h-377l-1015 1311l-394 -484v-827h-303z" />
    <glyph glyph-name="L" unicode="L" horiz-adv-x="2040" 
d="M311 0v3031h303v-2752h1254v-279h-1557z" />
    <glyph glyph-name="M" unicode="M" horiz-adv-x="3744" 
d="M311 0v3031h467l1106 -2580l1106 2580h467v-3031h-303v2695l-1139 -2695h-262l-1139 2695v-2695h-303z" />
    <glyph glyph-name="N" unicode="N" horiz-adv-x="3031" 
d="M311 0v3031h410l1696 -2515v2515h303v-3031h-303l-1803 2662v-2662h-303z" />
    <glyph glyph-name="O" unicode="O" horiz-adv-x="3604" 
d="M1778 3080c281.333 0 545.831 -69.3311 793.498 -207.998s444.834 -327.334 591.5 -566.001c146.667 -238.667 220 -499.334 220 -782.001c0 -286 -72.333 -550.333 -217 -793s-340.667 -434.667 -588 -576s-514 -212 -800 -212c-207.333 0 -407.333 39.667 -600 119
s-364.5 191 -515.5 335s-269.167 310.5 -354.5 499.5s-128 389.833 -128 602.5c0 290 71.833 555.833 215.5 797.5s338.334 432.667 584.001 573s511.834 210.5 798.501 210.5zM1786 2785l-0.00195312 8.00195c-233.333 -2.66699 -450.166 -62 -650.499 -178
s-359.166 -272.833 -476.499 -470.5s-176 -412.834 -176 -645.501c0 -226 60.167 -435.833 180.5 -629.5s280.833 -347.334 481.5 -461.001s414.334 -170.5 641.001 -170.5c234 0 450.167 57.5 648.5 172.5s355.5 271.167 471.5 468.5s174 412.333 174 645
c0 171.333 -34.667 334.5 -104 489.5s-164 290 -284 405s-258.833 204.833 -416.5 269.5s-320.834 97 -489.501 97z" />
    <glyph glyph-name="P" unicode="P" horiz-adv-x="2466" 
d="M311 0l-0.000976562 3031h795c200.667 -5.33301 359 -16.833 475 -34.5s228 -60.834 336 -129.5c128.667 -80.667 227.667 -186.667 297 -318s104 -273.666 104 -427c0 -298.667 -114.667 -533.667 -344 -705c-108 -78.667 -224.667 -131 -350 -157
s-270.666 -39 -435.999 -39h-574v-1221h-303zM613.999 1499l525 0.000976562c133.333 0 247.333 7.66699 342 23s182.667 48.666 264 99.999c56.667 36 105.167 80.333 145.5 133s71.166 110.5 92.499 173.5s32 127.5 32 193.5c0 130 -33.167 244.5 -99.5 343.5
s-158.833 172.833 -277.5 221.5c-101.333 44 -237.666 66 -408.999 66h-615v-1254z" />
    <glyph glyph-name="Q" unicode="Q" horiz-adv-x="3604" 
d="M3391 229l0.00195312 -286h-40c-124 0 -237.5 21.667 -340.5 65s-202.5 109 -298.5 197c-124 -84 -267 -148.667 -429 -194s-322.333 -68 -481 -68c-212.667 0 -416.5 38.833 -611.5 116.5s-368.833 187.5 -521.5 329.5s-272.334 308 -359.001 498s-130 391.333 -130 604
c0 226 41.667 436.5 125 631.5s200 364.333 350 508s324.167 254.5 522.5 332.5s409.166 117 632.499 117c226 0 439 -39.5 639 -118.5s374 -190 522 -333s263.333 -312.5 346 -508.5s124 -408.333 124 -637c0 -206 -45 -405.167 -135 -597.5s-214.333 -361.833 -373 -508.5
c137.333 -98.667 268.333 -148 393 -148h65zM2482 418l-163.999 123c-194.667 155.333 -364 259 -508 311c-236 82 -465.333 123 -688 123c-174.667 0 -330.334 -30 -467.001 -90c42.667 -78 104.5 -157.167 185.5 -237.5s161.167 -145.833 240.5 -196.5
c209.333 -142 458 -213 746 -213c261.333 0 479.666 60 655 180zM532.003 1147c203.333 70.667 419.332 106.003 647.999 106.003c156 0 303 -15 441 -45s268.333 -73.833 391 -131.5s241.834 -127.334 357.501 -209.001s232.5 -176.834 350.5 -285.501
c81.333 75.333 154 162.666 218 261.999s113.333 204 148 314s52 221 52 333c0 240.667 -59 460 -177 658s-278.667 353.5 -482 466.5s-426.333 169.5 -669 169.5c-179.333 0 -349.5 -32.167 -510.5 -96.5s-302.833 -155.333 -425.5 -273s-218.5 -256.167 -287.5 -415.5
s-103.5 -329 -103.5 -509c0 -112 16.333 -226.667 49 -344z" />
    <glyph glyph-name="R" unicode="R" horiz-adv-x="2564" 
d="M311 0v3031h721c186.667 0 348.834 -9.16699 486.501 -27.5s262.167 -58.166 373.5 -119.5c154.667 -89.333 272.5 -207.666 353.5 -355c81 -147.333 121.5 -310.333 121.5 -489c0 -161.333 -40 -310.666 -120 -447.999s-188.5 -247.166 -325.5 -329.499
s-285.833 -126.5 -446.5 -132.5l852 -1130h-377l-1032 1376h90c10 0 26 -1.33301 48 -4s38.667 -4 50 -4c237.333 0 425.666 30 564.999 90c122.667 58 218.834 141.5 288.501 250.5s104.5 230.5 104.5 364.5c0 65.333 -11.833 132.333 -35.5 201s-57 132 -100 190
s-93.167 107.667 -150.5 149c-86.667 62 -181.834 100.833 -285.501 116.5s-235.167 23.5 -394.5 23.5h-484v-2753h-303z" />
    <glyph glyph-name="S" unicode="S" horiz-adv-x="2138" 
d="M90 852h328.001c3.33301 -112.667 31.5 -215.667 84.5 -309s125.167 -167.5 216.5 -222.5s193 -82.5 305 -82.5c112.667 0 217 26 313 78s171.667 123.667 227 215s83 193 83 305c0 80.667 -18.667 159.834 -56 237.501s-87 143.167 -149 196.5
c-97.333 79.333 -253 144.666 -467 195.999c-132 35.333 -237.5 68.166 -316.5 98.499s-151.167 74.166 -216.5 131.499c-169.333 144.667 -254 333 -254 565c0 160.667 38.333 303.167 115 427.5s180.667 220.666 312 288.999s276 102.5 434 102.5
c146.667 0 283.667 -36.167 411 -108.5s228.5 -171 303.5 -296s112.5 -260.5 112.5 -406.5v-8h-311c-8 99.333 -36.667 189 -86 269s-114.5 142.5 -195.5 187.5s-172.833 67.5 -275.5 67.5c-96.667 0 -184.334 -23.5 -263.001 -70.5s-140.5 -110.5 -185.5 -190.5
s-67.5 -167.667 -67.5 -263c0 -114.667 27.333 -206.167 82 -274.5s121.167 -119.166 199.5 -152.499s183.833 -68.333 316.5 -105l153 -45.5c66 -19.667 119.833 -37.5 161.5 -53.5s85.5 -37.333 131.5 -64s91 -60 135 -100c88.667 -76 157.334 -170.167 206.001 -282.5
s73 -228.166 73 -347.499c0 -162 -41.833 -311.5 -125.5 -448.5s-196.167 -245.333 -337.5 -325s-293 -119.5 -455 -119.5c-171.333 0 -328.833 38.833 -472.5 116.5s-257.834 185.834 -342.501 324.501s-127 294.667 -127 468z" />
    <glyph glyph-name="T" unicode="T" horiz-adv-x="1753" 
d="M729 0v2753h-696v278h1687v-278h-688v-2753h-303z" />
    <glyph glyph-name="U" unicode="U" horiz-adv-x="2654" 
d="M311 3031h303v-1843c0 -268 46.667 -478.333 140 -631c66 -101.333 150.833 -179.833 254.5 -235.5s215.167 -83.5 334.5 -83.5c108.667 0 214.167 24.667 316.5 74s182.833 117.333 241.5 204c114.667 154 172 378 172 672v1843h303v-1843
c0 -177.333 -15.833 -334.666 -47.5 -471.999s-92.5 -264 -182.5 -380c-92 -124.667 -209.333 -221.334 -352 -290.001s-293 -103 -451 -103c-152.667 0 -298.667 32.167 -438 96.5s-255.333 154.833 -348 271.5c-67.333 80 -119 166.667 -155 260s-60.167 190 -72.5 290
s-18.5 209 -18.5 327v1843z" />
    <glyph glyph-name="V" unicode="V" horiz-adv-x="2892" 
d="M1294 0l-1253 3031h336l1057 -2654l1073 2654h327l-1253 -3031h-287z" />
    <glyph glyph-name="W" unicode="W" horiz-adv-x="3932" 
d="M901 0l-860 3031h319l738 -2638l729 2638h287l720 -2638l746 2638h311l-860 -3031h-401l-664 2482l-663 -2482h-402z" />
    <glyph glyph-name="X" unicode="X" horiz-adv-x="2515" 
d="M33 0l1032 1548l-967 1483h353l802 -1212l795 1212h352l-975 -1483l1041 -1548h-361l-852 1294l-860 -1294h-360z" />
    <glyph glyph-name="Y" unicode="Y" horiz-adv-x="2466" 
d="M1065 0v1016l-1057 2015h336l868 -1704l877 1704h328l-1049 -2015v-1016h-303z" />
    <glyph glyph-name="Z" unicode="Z" horiz-adv-x="2040" 
d="M74 0v270l1482 2483h-1441v278h1786v-278l-1483 -2474h1524v-279h-1868z" />
    <glyph glyph-name="bracketleft" unicode="[" horiz-adv-x="1753" 
d="M1286 -213v-311.001c-210.667 48.667 -391 160.667 -541 336c-112 124 -187.667 249.833 -227 377.5s-59 282.834 -59 465.501v1188c0 172 15.333 316.5 46 433.5s91.667 234.833 183 353.5c76 93.333 168.167 178 276.5 254s215.5 125 321.5 147v-311
c-132.667 -60 -237.667 -130.333 -315 -211s-132.833 -175 -166.5 -283s-50.5 -235.667 -50.5 -383v-1138c0 -160.667 14.333 -296.167 43 -406.5s81.667 -207.333 159 -291s187.333 -157.167 330 -220.5z" />
    <glyph glyph-name="backslash" unicode="\" horiz-adv-x="2327" 
d="M1614 0l-1270 3031h295l1262 -3031h-287z" />
    <glyph glyph-name="bracketright" unicode="]" horiz-adv-x="1327" 
d="M156 2720v311.001c210.667 -56.667 390.667 -168.667 540 -336c112.667 -124 188.667 -249.833 228 -377.5s59 -283.167 59 -466.5v-1187c0 -172.667 -15.833 -317.5 -47.5 -434.5s-95.167 -234.5 -190.5 -352.5c-68 -94.667 -156.667 -180.167 -266 -256.5
s-217 -124.5 -323 -144.5v311c193.333 78.667 330.333 189.667 411 333s121 324.666 121 543.999v1130c0 153.333 -8 272 -24 356s-57 173 -123 267c-82.667 123.333 -211 224.333 -385 303z" />
    <glyph glyph-name="asciicircum" unicode="^" horiz-adv-x="2515" 
d="M336 737h-262l1048 2294h238l1048 -2294h-262l-909 1983z" />
    <glyph glyph-name="underscore" unicode="_" horiz-adv-x="2040" 
d="M2048 -516h-2048v237h2048v-237z" />
    <glyph glyph-name="grave" unicode="`" horiz-adv-x="1475" 
d="M434 3195l811 -442l-131 -238l-811 434z" />
    <glyph glyph-name="a" unicode="a" horiz-adv-x="2753" 
d="M2540 2245v-2245h-287v426c-55.333 -103.333 -128.166 -191.166 -218.499 -263.499s-191.666 -127 -303.999 -164s-227.833 -55.5 -346.5 -55.5c-172.667 0 -346 40.667 -520 122s-331 201.666 -471 360.999c-51.333 56 -101 150.167 -149 282.5s-72 275.833 -72 430.5
c0 92 13.167 184.833 39.5 278.5s58.166 176.834 95.499 249.501s71.666 123.334 102.999 152.001c294.667 316.667 616.667 475 966 475c120 0 236.333 -17.833 349 -53.5s215 -89.167 307 -160.5s165.667 -158.333 221 -261v426h287zM1376 1999
c-161.333 0 -311.172 -39.4971 -449.505 -118.497s-248.166 -186.333 -329.499 -322s-122 -283.834 -122 -444.501c0 -158.667 41.833 -305.5 125.5 -440.5s195.5 -241.333 335.5 -319s289.333 -116.5 448 -116.5c152.667 0 295.834 39.667 429.501 119
s240.334 185.666 320.001 318.999s119.5 276.666 119.5 429.999c0 162.667 -38.167 312.667 -114.5 450s-181.666 245.5 -315.999 324.5s-283.166 118.5 -446.499 118.5z" />
    <glyph glyph-name="b" unicode="b" horiz-adv-x="2753" 
d="M262 0l-0.00390625 3031h303v-1204c46.667 98.667 115.167 183.334 205.5 254.001s191 123.834 302 159.501s223.167 53.5 336.5 53.5c216 0 417 -51 603 -153s334 -242 444 -420s165 -375 165 -591c0 -147.333 -26.167 -288.666 -78.5 -423.999
s-113.5 -242.333 -183.5 -321c-145.333 -165.333 -290.666 -280.333 -435.999 -345s-305.666 -97 -480.999 -97c-111.333 0 -225.166 17 -341.499 51s-223.666 84.833 -321.999 152.5s-174.833 147.167 -229.5 238.5v-385h-287zM1417 1999
c-246 0 -458.999 -90 -638.999 -270c-158 -158.667 -237 -366.334 -237 -623.001c0 -162 40.5 -309.5 121.5 -442.5s190.833 -237.167 329.5 -312.5s288.667 -113 450 -113c158 0 304.167 39.833 438.5 119.5s240.833 187.334 319.499 323.001
c78.667 135.667 118 282.834 118 441.501c0 124 -23.333 240.333 -70 349s-110.834 202.167 -192.501 280.5s-177.667 139.166 -288 182.499s-227.166 65 -350.499 65z" />
    <glyph glyph-name="c" unicode="c" horiz-adv-x="2605" 
d="M2154 655l336 0.00292969c-68.667 -145.333 -157.334 -271.333 -266 -378c-108.667 -106.667 -233.667 -189 -375 -247s-290.666 -87 -447.999 -87c-166.667 0 -324.167 29.167 -472.5 87.5s-279.833 141.166 -394.5 248.499s-203.667 233.166 -267 377.499
s-95 299.5 -95 465.5c0 216 55.5 413.667 166.5 593s259.667 320.666 446 423.999s386.166 155 599.499 155c157.333 0 310.5 -29.667 459.5 -89s280 -144.333 393 -255s197.5 -239 253.5 -385h-336c-77.333 131.333 -185.5 236.5 -324.5 315.5s-284.5 118.5 -436.5 118.5
c-164 0 -316.5 -37.667 -457.5 -113s-253 -179.5 -336 -312.5s-124.5 -280.833 -124.5 -443.5c0 -164.667 39.5 -315 118.5 -451s187 -243.5 324 -322.5s287.167 -118.5 450.5 -118.5c322 0 584 139 786 417z" />
    <glyph glyph-name="d" unicode="d" horiz-adv-x="2753" 
d="M2548 3031l0.000976562 -3031h-287v410c-220.667 -311.333 -521 -467 -901 -467c-165.333 0 -323.833 37.167 -475.5 111.5s-307.167 192.833 -466.5 355.5c-60.667 56 -116.834 152.333 -168.501 289s-77.5 280.334 -77.5 431.001c0 216 54.833 413 164.5 591
s257 318 442 420s384.167 153 597.5 153c175.333 0 342.5 -38.5 501.5 -115.5s281.5 -186.167 367.5 -327.5v1180h303zM2253 1130c0 162.667 -40.501 310.499 -121.501 443.499s-190.167 237.167 -327.5 312.5s-285.333 113 -444 113c-156.667 0 -303 -38.833 -439 -116.5
s-244.333 -183.167 -325 -316.5s-121 -278.666 -121 -435.999c0 -160.667 40.167 -309.5 120.5 -446.5s189 -245.5 326 -325.5s285.833 -120 446.5 -120s308.834 39.833 444.501 119.5s243 188.167 322 325.5s118.5 286.333 118.5 447z" />
    <glyph glyph-name="e" unicode="e" horiz-adv-x="2654" 
d="M2507 1016h-2032c6 -138.667 50 -267.667 132 -387s187.667 -214.333 317 -285s261 -106 395 -106c111.333 0 220.833 20 328.5 60s203.334 97.333 287.001 172s146.167 161 187.501 259h319c-50.667 -147.333 -131.834 -281 -243.5 -401
c-111.667 -120 -241.5 -214.167 -389.5 -282.5s-300 -102.5 -456 -102.5c-214 0 -411.5 52.5 -592.5 157.5s-324.167 248 -429.5 429s-158 378.5 -158 592.5c0 211.333 52 407.166 156 587.499s245.667 322.833 425 427.5s376 157 590 157
c174.667 0 339.167 -37.667 493.5 -113s290.5 -182.333 408.5 -321c96 -123.333 162.5 -250.666 199.5 -381.999s57.833 -285.333 62.5 -462zM474.998 1286l1729 -0.00292969c-26.667 132.667 -81.834 253.334 -165.501 362.001s-186.334 194.334 -308.001 257.001
s-250.834 94 -387.501 94s-267 -30.167 -391 -90.5s-228.333 -145.166 -313 -254.499s-139.334 -232 -164.001 -368z" />
    <glyph glyph-name="f" unicode="f" horiz-adv-x="1475" 
d="M418 0v1966h-352v279h352c0 5.33301 -1.33301 13.333 -4 24s-4 19 -4 25c0 228.667 74 408.667 222 540s341.333 197 580 197h58v-278h-58c-327.333 0 -491 -155.667 -491 -467v-41h557v-279h-557v-1966h-303z" />
    <glyph glyph-name="g" unicode="g" horiz-adv-x="2753" 
d="M2499 2245v-1926c0 -139.333 -4.83301 -251.166 -14.5 -335.499s-33 -166.833 -70 -247.5s-96.5 -164.667 -178.5 -252c-101.333 -114 -232.833 -202.667 -394.5 -266s-324.834 -95 -489.501 -95c-163.333 0 -321.833 34.333 -475.5 103s-285.667 165.167 -396 289.5
s-185.833 266.833 -226.5 427.5h295c93.333 -170 208 -301.333 344 -394s297 -139 483 -139c150 0 292.833 34.167 428.5 102.5s238.834 165.166 309.501 290.499c44.667 78.667 72.167 153.667 82.5 225s15.5 168.333 15.5 291v123
c-70.667 -160 -188.667 -283.167 -354 -369.5s-339.666 -129.5 -522.999 -129.5c-145.333 0 -289.833 30.167 -433.5 90.5s-269.5 142.166 -377.5 245.499c-234.667 218.667 -352 497 -352 835c0 145.333 23.167 284.166 69.5 416.499s94.166 225.5 143.499 279.5
c258 322.667 569.333 484 934 484c120 0 237.833 -18.5 353.5 -55.5s220.667 -92 315 -165s169.166 -160.833 224.5 -263.5v435h287zM1311 1999c-152 0 -292.167 -38.833 -420.5 -116.5s-229.666 -182 -303.999 -313s-111.5 -271.833 -111.5 -422.5
c0 -164.667 36.333 -316.667 109 -456s174.667 -249.666 306 -330.999s279.666 -122 444.999 -122c249.333 0 454.333 84.667 615 254c77.333 81.333 139 179.166 185 293.499s69 226.5 69 336.5c0 163.333 -39.5 312 -118.5 446s-187.167 239.333 -324.5 316
s-287.333 115 -450 115z" />
    <glyph glyph-name="h" unicode="h" horiz-adv-x="2417" 
d="M262 0v3031h303v-1114c64 118.667 158.5 211.167 283.5 277.5s257.167 99.5 396.5 99.5c144.667 0 284.667 -30 420 -90s249.333 -144.667 342 -254c158.667 -178 238 -434.667 238 -770v-1180h-303v1180c0 234.667 -44 414.667 -132 540
c-63.333 88.667 -146.5 157.334 -249.5 206.001s-213.5 73 -331.5 73c-102.667 0 -204.5 -24.667 -305.5 -74s-182.167 -114.666 -243.5 -195.999c-50.667 -69.333 -82.5 -146.166 -95.5 -230.499s-19.5 -190.5 -19.5 -318.5v-1180h-303z" />
    <glyph glyph-name="i" unicode="i" horiz-adv-x="860" 
d="M262 0v2245h303v-2245h-303zM262 2515v516h303v-516h-303z" />
    <glyph glyph-name="j" unicode="j" horiz-adv-x="860" 
d="M573 2245v-2106c0 -106 -3.83301 -195.5 -11.5 -268.5s-26.5 -145.833 -56.5 -218.5s-75.333 -142.334 -136 -209.001c-69.333 -72.667 -152.5 -129 -249.5 -169s-199.5 -60 -307.5 -60v294c136 5.33301 237.333 40 304 104s109 143.5 127 238.5s27 213.167 27 354.5
v2040h303zM270 2515v516h303v-516h-303z" />
    <glyph glyph-name="k" unicode="k" horiz-adv-x="2138" 
d="M262 0v3031h303v-2130l1024 1344h393l-868 -1123l926 -1122h-393l-729 885l-353 -459v-426h-303z" />
    <glyph glyph-name="l" unicode="l" horiz-adv-x="811" 
d="M262 0v3031h303v-3031h-303z" />
    <glyph glyph-name="m" unicode="m" horiz-adv-x="3842" 
d="M262 0v2245h287v-295c50.667 114.667 129.667 200.667 237 258s227.666 86 360.999 86c294 0 534.333 -114.667 721 -344c8.66699 -8.66699 18.167 -21 28.5 -37l28.5 -45c19.333 27.333 35.666 54.666 48.999 81.999c76 108 178.833 192.333 308.5 253
s261.834 91 396.5 91c234.667 0 466.667 -114.667 696 -344c82.667 -82.667 138.834 -177.834 168.5 -285.501c29.667 -107.667 44.5 -236.5 44.5 -386.5v-1278h-303v1253c0 214 -38.333 375.333 -115 484c-124.667 174.667 -294 262 -508 262
c-95.333 0 -187.833 -22.833 -277.5 -68.5s-160.834 -107.5 -213.5 -185.5c-42.667 -60 -69.667 -128.667 -81 -206s-17 -172.666 -17 -285.999v-1253h-304v1286c0 97.333 -6.33301 178.333 -19 243s-41.667 131.334 -87 200.001c-57.333 82 -130.666 147.5 -219.999 196.5
s-182.666 73.5 -279.999 73.5c-96.667 0 -188.667 -20.5 -276 -61.5s-159 -99.833 -215 -176.5c-47.333 -65.333 -77 -132.833 -89 -202.5s-18 -160.5 -18 -272.5v-1286h-303z" />
    <glyph glyph-name="n" unicode="n" horiz-adv-x="2466" 
d="M262 0l0.000976562 2245h287v-328c176 251.333 408 377 696 377c149.333 0 294.166 -32.667 434.499 -98s260.5 -158.333 360.5 -279c79.333 -98 133.333 -205.167 162 -321.5s43 -254.833 43 -415.5v-1180h-303v1180c0 235.333 -44 412.666 -132 531.999
c-140.667 191.333 -334.334 287 -581.001 287c-106 0 -208.667 -23.833 -308 -71.5s-179.666 -113.834 -240.999 -198.501c-50.667 -72.667 -82.5 -150.667 -95.5 -234s-19.5 -188.333 -19.5 -315v-1180h-303z" />
    <glyph glyph-name="o" unicode="o" horiz-adv-x="2703" 
d="M1352 2294c153.333 0 300.336 -30.167 441.003 -90.5s265.5 -144.5 374.5 -252.5s194.167 -232.333 255.5 -373s92 -287 92 -439c0 -209.333 -52 -406.166 -156 -590.499s-245.167 -331.333 -423.5 -441s-372.833 -164.5 -583.5 -164.5
c-208.667 0 -403.834 52.333 -585.501 157s-326.167 246.5 -433.5 425.5s-161 372.5 -161 580.5c0 214.667 52.667 413.167 158 595.5s248.666 326.666 429.999 432.999s378.666 159.5 591.999 159.5zM1352 1999c-162.667 0 -311.168 -40.0029 -445.501 -120.003
s-239.833 -188.833 -316.5 -326.5s-115 -286.5 -115 -446.5c0 -155.333 39.333 -299.666 118 -432.999s185.334 -239.166 320.001 -317.499s281 -117.5 439 -117.5c162 0 308.833 40.5 440.5 121.5s234.5 190.667 308.5 329s111 288.5 111 450.5
c0 242.667 -87.333 447.334 -262 614.001c-172.667 164 -372 246 -598 246z" />
    <glyph glyph-name="p" unicode="p" horiz-adv-x="2802" 
d="M262 2245l287 0.000976562v-385c82.667 137.333 208.5 244 377.5 320s340.833 114 515.5 114c338 0 643.667 -144.667 917 -434c44.667 -42.667 87 -101.834 127 -177.501s72.5 -162.667 97.5 -261s37.5 -200.833 37.5 -307.5c0 -163.333 -31.5 -316.833 -94.5 -460.5
s-150.667 -268.667 -263 -375s-242.166 -188.833 -389.499 -247.5s-302.333 -88 -465 -88c-110.667 0 -222 18.333 -334 55s-213.333 91 -304 163s-159.334 157.667 -206.001 257v-1204h-303v3031zM1417 238.001c164.667 0 315.832 38.168 453.499 114.501
s246.667 181.5 327 315.5s120.5 282.667 120.5 446c0 161.333 -39.167 309.666 -117.5 444.999s-184.666 242.5 -318.999 321.5s-280.833 118.5 -439.5 118.5c-162 0 -312.167 -37 -450.5 -111s-248 -176.833 -329 -308.5s-121.5 -278.5 -121.5 -440.5
c0 -257.333 79 -465 237 -623c177.333 -185.333 390.333 -278 639 -278z" />
    <glyph glyph-name="q" unicode="q" horiz-adv-x="2843" 
d="M2540 2245v-3031h-304v1204c-47.333 -100.667 -116.166 -186.667 -206.5 -258c-90.333 -71.333 -192 -125.333 -305 -162s-226.5 -55 -340.5 -55c-160 0 -313.167 29.333 -459.5 88s-276.5 141.334 -390.5 248.001s-202.833 231.5 -266.5 374.5s-95.5 296.5 -95.5 460.5
c0 104 12.833 205.333 38.5 304s59 186.667 100 264s82.167 136.666 123.5 177.999c252 289.333 560.667 434 926 434c170.667 0 340.667 -38 510 -114s297 -182.667 383 -320v385h287zM1376 238c254 0 469.668 92.667 647.001 278c153.333 153.333 230 361 230 623
c0 162 -40 308.833 -120 440.5s-188.5 234.5 -325.5 308.5s-286.167 111 -447.5 111s-309.833 -39.333 -445.5 -118s-242.834 -185.834 -321.501 -321.501s-118 -284.167 -118 -445.5c0 -163.333 40.333 -312.166 121 -446.499s189.667 -239.5 327 -315.5
s288.333 -114 453 -114z" />
    <glyph glyph-name="r" unicode="r" horiz-adv-x="1237" 
d="M262 0l-0.000976562 2245h287v-328c102.667 241.333 318.334 367 647.001 377v-303c-158 -8.66699 -291.667 -60.667 -401 -156c-98.667 -80 -161.667 -160.667 -189 -242s-41 -194.666 -41 -339.999v-1253h-303z" />
    <glyph glyph-name="s" unicode="s" 
d="M74 664l303.002 -0.00195312l-8 -17c0 -110.667 41.667 -206.5 125 -287.5s180.666 -121.5 291.999 -121.5c70.667 0 136.167 16 196.5 48s108.333 77 144 135s53.5 122.333 53.5 193c0 123.333 -39.167 216.833 -117.5 280.5s-184.166 112.167 -317.499 145.5
c-118 40.667 -202.833 72 -254.5 94s-103.167 56.333 -154.5 103c-120 110.667 -180 252.667 -180 426c0 118.667 29 226.334 87 323.001s137 172.167 237 226.5s207.667 81.5 323 81.5c109.333 0 212.166 -27.833 308.499 -83.5s172.666 -130.167 228.999 -223.5
s84.5 -193 84.5 -299h-303c0 95.333 -33.167 171 -99.5 227s-150.5 84 -252.5 84c-86 0 -159.333 -30.333 -220 -91s-91 -134 -91 -220c0 -76.667 17.667 -138.667 53 -186s79.666 -83.5 132.999 -108.5s122.333 -49.833 207 -74.5
c200 -63.333 355.167 -142.666 465.5 -237.999s165.5 -234.333 165.5 -417c0 -139.333 -31.667 -264 -95 -374s-150.666 -195.333 -261.999 -256s-235.333 -91 -372 -91c-118 0 -230.167 31.667 -336.5 95s-191.5 148 -255.5 254s-96 219 -96 339c0 2.66699 1.33301 8 4 16
s4 13.667 4 17z" />
    <glyph glyph-name="t" unicode="t" horiz-adv-x="1376" 
d="M516 0v1966h-467v279h467v786h303v-786h524v-279h-524v-1966h-303z" />
    <glyph glyph-name="u" unicode="u" horiz-adv-x="2466" 
d="M2236 2245v-2245h-286v352c-70.667 -137.333 -171.834 -239.833 -303.501 -307.5s-279.167 -101.5 -442.5 -101.5c-97.333 0 -189.833 13.333 -277.5 40s-174.334 70.834 -260.001 132.501s-168.5 140.5 -248.5 236.5c-104 111.333 -156 346.333 -156 705v1188h303v-1188
c0 -106 6.33301 -197.833 19 -275.5s39.334 -149.834 80.001 -216.501c124.667 -218 318.334 -327 581.001 -327c110.667 0 213.667 24 309 72s175.333 116.667 240 206c92.667 126 139 306.333 139 541v1188h303z" />
    <glyph glyph-name="v" unicode="v" horiz-adv-x="2277" 
d="M975 0l-942 2245h327l779 -1860l770 1860h327l-942 -2245h-319z" />
    <glyph glyph-name="w" unicode="w" horiz-adv-x="3416" 
d="M877 0l-844 2245h319l705 -1876l516 1597h254l516 -1597l713 1876h319l-852 -2245h-344l-483 1491l-467 -1491h-352z" />
    <glyph glyph-name="x" unicode="x" horiz-adv-x="1950" 
d="M33 0l770 1139l-770 1106h360l590 -869l598 869h352l-770 -1106l770 -1139h-352l-598 901l-590 -901h-360z" />
    <glyph glyph-name="y" unicode="y" horiz-adv-x="2089" 
d="M1835 2245h328l-1295 -3031h-319l352 860l-860 2171h319l721 -1786z" />
    <glyph glyph-name="z" unicode="z" horiz-adv-x="1753" 
d="M41 0v270l1212 1696h-1171v279h1540v-279l-1204 -1687h1286v-279h-1663z" />
    <glyph glyph-name="braceleft" unicode="{" horiz-adv-x="1425" 
d="M492 1720l-0.000976562 688c0 150.667 16 270.834 48 360.5c32 89.667 88.5 155.834 169.5 198.5c81 42.667 194.167 64 339.5 64h65c-119.333 -36 -203.833 -92.5 -253.5 -169.5s-74.5 -178.833 -74.5 -305.5v-729c0 -165.333 -24.167 -292.833 -72.5 -382.5
s-146.833 -153.5 -295.5 -191.5c143.333 -26.667 240.5 -80.5 291.5 -161.5s76.5 -199.167 76.5 -354.5v-786c0 -135.333 22.833 -238.333 68.5 -309s132.167 -126 259.5 -166c-114.667 0 -205.667 6 -273 18s-132 41.333 -194 88c-66 48.667 -108.333 108.667 -127 180
s-28 161.666 -28 270.999v778c0 75.333 -5 134.333 -15 177s-35.333 87.334 -76 134.001c-70 80 -151.667 123.667 -245 131c96.667 33.333 167.667 69 213 107c54.667 43.333 88.834 91 102.501 143s20.5 124.333 20.5 217z" />
    <glyph glyph-name="bar" unicode="|" horiz-adv-x="2802" 
d="M1245 0v3031h262v-3031h-262z" />
    <glyph glyph-name="braceright" unicode="}" horiz-adv-x="1425" 
d="M475 1827v729c0 128 -24.5 230.167 -73.5 306.5s-130.833 132.5 -245.5 168.5h57c142.667 0 254.5 -21.333 335.5 -64s138.167 -109.167 171.5 -199.5s50 -210.166 50 -359.5v-688c0 -92.667 6.83301 -164.834 20.5 -216.501s47.834 -99.5 102.501 -143.5
c50.667 -43.333 121.667 -79 213 -107c-92.667 -7.33301 -174.667 -51 -246 -131c-40 -46.667 -65 -91.334 -75 -134.001s-15 -101.667 -15 -177v-778c0 -109.333 -9.5 -199.666 -28.5 -270.999s-61.5 -131.333 -127.5 -180c-64 -46.667 -129 -76 -195 -88
s-153.667 -18 -263 -18c120 40 203.167 95.5 249.5 166.5s69.5 173.833 69.5 308.5v786c0 154 25.667 271.833 77 353.5s148.666 135.834 291.999 162.501c-148 38 -246.5 101.833 -295.5 191.5s-73.5 217.167 -73.5 382.5z" />
    <glyph glyph-name="asciitilde" unicode="~" horiz-adv-x="2564" 
d="M2105 1606l172.002 -197c-167.333 -300.667 -361 -451 -581 -451c-34 0 -75.5 6.16699 -124.5 18.5s-92.333 25.5 -130 39.5s-93.167 36.333 -166.5 67s-118.666 49.334 -135.999 56.001c-92 36.667 -158.833 62.167 -200.5 76.5s-89.5 21.5 -143.5 21.5
c-92.667 0 -167 -30.5 -223 -91.5s-121 -153.5 -195 -277.5l-164 197c78 145.333 162.167 262.166 252.5 350.499s200.166 132.5 329.499 132.5c66 0 137.667 -12.5 215 -37.5s173.666 -63 288.999 -114s198.833 -86.167 250.5 -105.5s100.5 -29 146.5 -29
c145.333 0 281.666 114.667 408.999 344z" />
    <glyph glyph-name="nonbreakingspace" unicode="&#xa0;" horiz-adv-x="1475" 
 />
    <glyph glyph-name="exclamdown" unicode="&#xa1;" horiz-adv-x="2376" 
d="M664 0l483 983l-1139 2048h336l959 -1737l786 1737h328l-1418 -3031h-335zM549 3359v278h1286v-278h-1286z" />
    <glyph glyph-name="cent" unicode="&#xa2;" horiz-adv-x="2138" 
d="M1835 2245h328l-1295 -3031h-319l352 860l-860 2171h319l721 -1786zM483 2564v270h1164v-270h-1164z" />
    <glyph glyph-name="sterling" unicode="&#xa3;" horiz-adv-x="1991" 
d="M1663 3031l0.00195312 -2179l-10 -178.5c-2.66699 -49.667 -8.5 -98.5 -17.5 -146.5s-24.333 -95.333 -46 -142s-51.834 -93 -90.501 -139c-160 -202 -375.667 -303 -647 -303c-145.333 0 -279 34.167 -401 102.5s-218.833 161.5 -290.5 279.5s-108.834 250 -111.501 396
h295c12.667 -142.667 70 -258.834 172 -348.501s225 -134.5 369 -134.5c98 0 186.833 27 266.5 81s138.167 128 175.5 222c22 72 33 167.333 33 286v2204h303z" />
    <glyph glyph-name="currency" unicode="&#xa4;" horiz-adv-x="3080" 
d="M131 451l172 172c-131.333 196.667 -197 398.667 -197 606c0 121.333 15.167 230.333 45.5 327s80.833 195 151.5 295l-172 172l213 222l180 -181c176.667 136.667 387 205 631 205c202.667 0 402 -68.333 598 -205l180 181l213 -222l-180 -172
c131.333 -192.667 197 -405.667 197 -639c0 -204 -65.667 -400.333 -197 -589l180 -172l-213 -213l-180 172c-196 -136.667 -409 -205 -639 -205c-192 0 -388.667 68.333 -590 205l-180 -172zM1868 1245c0 125.333 -32.165 244 -96.498 356s-151 202.167 -260 270.5
s-225.167 102.5 -348.5 102.5h-8l-16 -8c-134.667 0 -259.334 -32.333 -374.001 -97s-205.334 -152.667 -272.001 -264s-100 -234 -100 -368l8 -8l-8 -17c0 -124.667 34.333 -241.834 103 -351.501s160 -197.167 274 -262.5s234 -98 360 -98
c134 2.66699 257.833 37 371.5 103s203.167 155.333 268.5 268s98 237.334 98 374.001z" />
    <glyph glyph-name="yen" unicode="&#xa5;" horiz-adv-x="1950" 
d="M311 3031h1254v467h303v-745h-1254v-2753h-303v3031z" />
    <glyph glyph-name="brokenbar" unicode="&#xa6;" horiz-adv-x="3744" 
d="M1245 0v1212h262v-1212h-262zM1245 1819v1212h262v-1212h-262z" />
    <glyph glyph-name="section" unicode="&#xa7;" horiz-adv-x="3416" 
d="M1974 2482l-285.998 0.000976562c0 62 -21.833 116 -65.5 162s-98.334 81 -164.001 105s-128.5 36 -188.5 36h-41c-110 0 -201.667 -34 -275 -102s-110 -159.667 -110 -275c0 -84.667 25.333 -154.5 76 -209.5s120.667 -105.167 210 -150.5l517 -254
c106 -52 195.333 -102.5 268 -151.5s133.5 -111 182.5 -186s73.5 -161.833 73.5 -260.5c0 -110.667 -31.5 -222.334 -94.5 -335.001s-143.5 -197.667 -241.5 -255c65.333 -52.667 117.166 -118.834 155.499 -198.501s57.5 -160.834 57.5 -243.501
c0 -145.333 -34.833 -274.166 -104.5 -386.499s-164 -198.833 -283 -259.5s-249.167 -91 -390.5 -91c-154 0 -294.667 37 -422 111s-227.5 175 -300.5 303s-110.833 271 -113.5 429h287c0 -98 22.5 -189 67.5 -273s107 -151 186 -201s166.5 -75 262.5 -75h66
c82 0 158.167 17.667 228.5 53s126.166 85.833 167.499 151.5s62 142.5 62 230.5c0 101.333 -37.5 182.333 -112.5 243s-179.5 124.334 -313.5 191.001l-663 344c-208 104 -312 254 -312 450c0 252 120.333 462.333 361 631c-50 42.667 -89.833 102.5 -119.5 179.5
s-44.5 151.167 -44.5 222.5c0 125.333 30.833 238.666 92.5 340c61.667 101.333 145.334 180.5 251.001 237.5s220.5 85.5 344.5 85.5c115.333 0 229 -25 341 -75s204 -120.333 276 -211s109.333 -194.667 112 -312zM918.002 1106l719.999 -360.998
c65.333 36.667 121.333 93.334 168 170.001s70 151.334 70 224.001c0 98.667 -24.5 173.167 -73.5 223.5s-128.167 104.166 -237.5 161.499l-672 336c-71.333 -42.667 -130.166 -103.334 -176.499 -182.001s-69.5 -160 -69.5 -244c0 -76.667 23.167 -138.834 69.5 -186.501
s113.5 -94.834 201.5 -141.501z" />
    <glyph glyph-name="dieresis" unicode="&#xa8;" horiz-adv-x="2179" 
d="M311 0v3031h1655v-278h-1352v-1090h1311v-270h-1311v-1114h1352v-279h-1655zM639 3817h303v-516h-303v516zM1393 3817h303v-516h-303v516z" />
    <glyph glyph-name="copyright" unicode="&#xa9;" horiz-adv-x="4170" 
d="M1532 -57c-214 0 -415.834 40.1689 -605.501 120.502s-358 193.666 -505 339.999s-260.833 314.833 -341.5 505.5s-121 393 -121 607c0 280.667 70.333 541 211 781s332.334 430.5 575.001 571.5s505 211.5 787 211.5c283.333 0 545.166 -70.333 785.499 -211
s430.333 -331.167 570 -571.5s209.5 -500.833 209.5 -781.5c0 -284 -69.833 -546.833 -209.5 -788.5s-329.667 -432.834 -570 -573.501s-502.166 -211 -785.499 -211zM1532 139.002c248.667 0 478.83 61.667 690.497 185s378.834 290.666 501.501 501.999
s184 441.333 184 690c0 247.333 -61.5 477 -184.5 689s-290.167 379.5 -501.5 502.5s-441.333 184.5 -690 184.5s-478.667 -61.5 -690 -184.5s-378.5 -290.5 -501.5 -502.5s-184.5 -441.667 -184.5 -689c0 -248.667 61.333 -478.667 184 -690
s289.834 -378.666 501.501 -501.999s441.834 -185 690.501 -185zM2105 1229l222.001 -0.00195312c-13.333 -119.333 -54.166 -225.166 -122.5 -317.499c-68.333 -92.333 -155 -163.5 -260 -213.5s-217.833 -75 -338.5 -75c-172 0 -323.833 39.5 -455.5 118.5
s-233.5 187.833 -305.5 326.5s-108 293.334 -108 464.001c0 262.667 76.5 477.167 229.5 643.5s360.5 249.5 622.5 249.5c194 0 358.333 -52.167 493 -156.5s216.334 -248.833 245 -433.5h-222c-24 122 -83.5 220.833 -178.5 296.5s-204.833 113.5 -329.5 113.5
c-134 0 -248.5 -31.5 -343.5 -94.5s-166.5 -148.167 -214.5 -255.5s-72 -228.333 -72 -363c0 -128.667 25.167 -248 75.5 -358s124.166 -198 221.499 -264s211.333 -99 342 -99c82 0 159.333 17.5 232 52.5s132.667 83.833 180 146.5s76.333 135.667 87 219z" />
    <glyph glyph-name="ordfeminine" unicode="&#xaa;" horiz-adv-x="3318" 
d="M459 1393c23.333 -211.333 96.166 -405.668 218.499 -583.001s277.333 -317 465 -419s385.834 -153 594.501 -153c135.333 0 268 22.667 398 68s251.5 110.833 364.5 196.5s208.167 183.167 285.5 292.5h336c-85.333 -166 -200.166 -313.833 -344.5 -443.5
c-144.333 -129.667 -306.666 -230.167 -487 -301.5c-180.333 -71.333 -364.5 -107 -552.5 -107c-290 0 -556.833 69.5 -800.5 208.5s-436.167 329.833 -577.5 572.5s-212 509.334 -212 800.001c0 280 70.333 539.667 211 779s331.334 428.666 572.001 568
c240.667 139.333 501.334 209 782.001 209c326.667 0 619 -84.667 877 -254c109.333 -71.333 214.666 -159.333 316 -264c101.333 -104.667 170.666 -207.667 207.999 -309h-336c-74 110.667 -167.833 206.334 -281.5 287.001s-237.667 141.667 -372 183
s-268.833 62 -403.5 62c-206.667 0 -401.834 -51 -585.501 -153s-334.667 -239.333 -453 -412s-189.833 -358.334 -214.5 -557.001h1540v-270h-1548z" />
    <glyph glyph-name="guillemotleft" unicode="&#xab;" horiz-adv-x="2376" 
d="M631 418l-467 819l467 811l237 -123l-385 -688l385 -688zM1335 418l-458 819l458 811l246 -123l-385 -688l385 -688z" />
    <glyph glyph-name="logicalnot" unicode="&#xac;" horiz-adv-x="3367" 
d="M1966 680v795h-1753v311h2064v-1106h-311z" />
    <glyph glyph-name="registered" unicode="&#xae;" horiz-adv-x="4170" 
d="M1532 -57c-214 0 -415.834 40.1689 -605.501 120.502s-358 193.666 -505 339.999s-260.833 314.833 -341.5 505.5s-121 393 -121 607c0 280.667 70.333 541 211 781s332.334 430.5 575.001 571.5s505 211.5 787 211.5c283.333 0 545.166 -70.333 785.499 -211
s430.333 -331.167 570 -571.5s209.5 -500.833 209.5 -781.5c0 -284 -69.833 -546.833 -209.5 -788.5s-329.667 -432.834 -570 -573.501s-502.166 -211 -785.499 -211zM1532 139.002c248.667 0 478.83 61.667 690.497 185s378.834 290.666 501.501 501.999
s184 441.333 184 690c0 247.333 -61.5 477 -184.5 689s-290.167 379.5 -501.5 502.5s-441.333 184.5 -690 184.5s-478.667 -61.5 -690 -184.5s-378.5 -290.5 -501.5 -502.5s-184.5 -441.667 -184.5 -689c0 -248.667 61.333 -478.667 184 -690
s289.834 -378.666 501.501 -501.999s441.834 -185 690.501 -185zM1786 1450l524 -811h-254l-500 811h-393v-811h-213v1753h762c188 0 330 -30 426 -90c63.333 -35.333 112 -87.333 146 -156s51 -142.334 51 -221.001c0 -307.333 -183 -465.666 -549 -474.999zM1163 1614
h328.001c12.667 0 36 -1.33301 70 -4s59.667 -4 77 -4c322.667 0 484 109 484 327c0 122 -41.833 203 -125.5 243s-194.834 60 -333.501 60h-500v-622z" />
    <glyph glyph-name="macron" unicode="&#xaf;" horiz-adv-x="950" 
d="M311 0v3031h303v-3031h-303zM16 3817h303v-516h-303v516zM614 3817h304v-516h-304v516z" />
    <glyph glyph-name="degree" unicode="&#xb0;" horiz-adv-x="2228" 
d="M1434 2417c0 -111.333 -27.835 -214.501 -83.502 -309.501s-130.667 -169.667 -225 -224s-196.5 -81.5 -306.5 -81.5s-212.167 27.333 -306.5 82s-169.166 129.334 -224.499 224.001s-83 197.667 -83 309c0 109.333 27.667 211.333 83 306s130.333 169.667 225 225
s196.667 83 306 83s211.333 -27.667 306 -83s169.834 -130.333 225.501 -225s83.5 -196.667 83.5 -306zM1270 2417c0 78.667 -20.332 152.835 -60.999 222.501c-40.667 69.667 -95.834 125 -165.501 166s-144.5 61.5 -224.5 61.5s-154.833 -20.5 -224.5 -61.5
s-124.667 -95.833 -165 -164.5s-60.5 -143.334 -60.5 -224.001c0 -83.333 20.333 -159.5 61 -228.5s95.5 -123.333 164.5 -163s143.833 -59.5 224.5 -59.5s155.5 19.833 224.5 59.5s124 94.5 165 164.5s61.5 145.667 61.5 227z" />
    <glyph glyph-name="plusminus" unicode="&#xb1;" horiz-adv-x="3367" 
d="M1090 1606v663h311v-663h876v-312h-876v-671h-311v671h-877v312h877zM213 0v311h2064v-311h-2064z" />
    <glyph glyph-name="twosuperior" unicode="&#xb2;" horiz-adv-x="999" 
d="M311 0v3031h303v-3031h-303z" />
    <glyph glyph-name="threesuperior" unicode="&#xb3;" horiz-adv-x="860" 
d="M262 0v2245h303v-2245h-303zM262 2515v516h303v-516h-303z" />
    <glyph glyph-name="acute" unicode="&#xb4;" horiz-adv-x="1614" 
d="M1262 2245v401h303v-664h-1000v-1982h-303v2245h1000z" />
    <glyph glyph-name="mu" unicode="&#xb5;" horiz-adv-x="3416" 
d="M1933 1057l-0.00195312 1188h303v-2245h-286v352h-8c-44.667 -92 -104.667 -168.667 -180 -230s-161 -106.5 -257 -135.5s-196.333 -43.5 -301 -43.5c-244 0 -457 87.333 -639 262v-991h-303v3031h303v-1188c0 -106 6.33301 -197.833 19 -275.5
s39.334 -149.834 80.001 -216.501c124.667 -218 318.334 -327 581.001 -327c110.667 0 213.667 24 309 72s175.333 116.667 240 206c92.667 126 139 306.333 139 541z" />
    <glyph glyph-name="paragraph" unicode="&#xb6;" horiz-adv-x="3129" 
d="M942 -524v1982l-16 -8c-132.667 0 -258.5 36.167 -377.5 108.5s-214.167 169.333 -285.5 291s-107 250.5 -107 386.5c0 113.333 22.833 223.666 68.5 331c45.667 107.333 110.167 196.333 193.5 267c88 82 178.167 134.167 270.5 156.5s217.833 35.833 376.5 40.5h950
v-3555h-303v3277h-467v-3277h-303z" />
    <glyph glyph-name="periodcentered" unicode="&#xb7;" 
d="M418 975v516h303v-516h-303z" />
    <glyph glyph-name="cedilla" unicode="&#xb8;" horiz-adv-x="2654" 
d="M2507 1016h-2032c6 -138.667 50 -267.667 132 -387s187.667 -214.333 317 -285s261 -106 395 -106c111.333 0 220.833 20 328.5 60s203.334 97.333 287.001 172s146.167 161 187.501 259h319c-50.667 -147.333 -131.834 -281 -243.5 -401
c-111.667 -120 -241.5 -214.167 -389.5 -282.5s-300 -102.5 -456 -102.5c-214 0 -411.5 52.5 -592.5 157.5s-324.167 248 -429.5 429s-158 378.5 -158 592.5c0 211.333 52 407.166 156 587.499s245.667 322.833 425 427.5s376 157 590 157
c174.667 0 339.167 -37.667 493.5 -113s290.5 -182.333 408.5 -321c96 -123.333 162.5 -250.666 199.5 -381.999s57.833 -285.333 62.5 -462zM474.998 1286l1729 -0.00292969c-26.667 132.667 -81.834 253.334 -165.501 362.001s-186.334 194.334 -308.001 257.001
s-250.834 94 -387.501 94s-267 -30.167 -391 -90.5s-228.333 -145.166 -313 -254.499s-139.334 -232 -164.001 -368zM836.002 3047h303v-516h-303v516zM1589 3047h303v-516h-303v516z" />
    <glyph glyph-name="onesuperior" unicode="&#xb9;" horiz-adv-x="4170" 
d="M311 0v3031h443l1360 -2515v2515h303v-3031h-336l-1467 2662v-2662h-303zM3293 1745c110.667 0 214.167 -28.832 310.5 -86.499s172.5 -135.334 228.5 -233.001s84 -201.5 84 -311.5c0 -108.667 -29 -211.167 -87 -307.5s-135.333 -172.833 -232 -229.5
s-198 -85 -304 -85c-112 0 -216.667 27.833 -314 83.5s-174.5 131.667 -231.5 228s-85.5 199.833 -85.5 310.5c0 112.667 28 217.5 84 314.5s132.5 174 229.5 231s202.833 85.5 317.5 85.5zM3293 672.001c79.333 0 152.666 20.502 220 61.502
c67.333 41 119.833 96.167 157.5 165.5s56.5 143.666 56.5 222.999c0 80 -19 154.167 -57 222.5s-90.333 122.166 -157 161.499s-140 59 -220 59c-126 0 -231.167 -42.833 -315.5 -128.5s-126.5 -190.5 -126.5 -314.5c0 -80 19.167 -154.5 57.5 -223.5s91.666 -124 160 -165
c68.333 -41 143.166 -61.5 224.5 -61.5zM2662 180.003h1254v-180h-1254v180z" />
    <glyph glyph-name="ordmasculine" unicode="&#xba;" horiz-adv-x="2605" 
d="M434 1016c18.667 -144 69.1689 -275.83 151.502 -395.497s187.833 -213.334 316.5 -281.001s267.667 -101.5 417 -101.5c322 0 584 139 786 417h336c-102.667 -219.333 -250.334 -392.833 -443 -520.5c-192.667 -127.667 -408 -191.5 -646 -191.5
c-166.667 0 -324.167 29.167 -472.5 87.5s-279.833 141.166 -394.5 248.499s-203.667 233.166 -267 377.499s-95 299.5 -95 465.5c0 216 55.5 413.667 166.5 593s259.667 320.666 446 423.999s386.166 155 599.499 155c157.333 0 310.333 -29.667 459 -89
s279.667 -144.333 393.001 -255c113.333 -110.667 198 -239 254 -385h-336c-77.333 131.333 -185.5 236.5 -324.5 315.5s-284.833 118.5 -437.5 118.5c-109.333 0 -214.5 -17 -315.5 -51s-192.333 -82.667 -274 -146s-149.334 -139.166 -203.001 -227.499
s-89.834 -184.5 -108.501 -288.5h1196v-270h-1204z" />
    <glyph glyph-name="guillemotright" unicode="&#xbb;" horiz-adv-x="2376" 
d="M1114 418l-237 131l385 688l-385 688l237 123l467 -811zM401 418l-237 131l385 688l-385 688l237 123l467 -811z" />
    <glyph glyph-name="onequarter" unicode="&#xbc;" horiz-adv-x="950" 
d="M573 2245v-2106c0 -106 -3.83301 -195.5 -11.5 -268.5s-26.5 -145.833 -56.5 -218.5s-75.333 -142.334 -136 -209.001c-69.333 -72.667 -152.5 -129 -249.5 -169s-199.5 -60 -307.5 -60v294c136 5.33301 237.333 40 304 104s109 143.5 127 238.5s27 213.167 27 354.5
v2040h303zM270 2515v516h303v-516h-303z" />
    <glyph glyph-name="onehalf" unicode="&#xbd;" horiz-adv-x="2089" 
d="M90 852h328.001c3.33301 -112.667 31.5 -215.667 84.5 -309s125.167 -167.5 216.5 -222.5s193 -82.5 305 -82.5c112.667 0 217 26 313 78s171.667 123.667 227 215s83 193 83 305c0 80.667 -18.667 159.834 -56 237.501s-87 143.167 -149 196.5
c-97.333 79.333 -253 144.666 -467 195.999c-132 35.333 -237.5 68.166 -316.5 98.499s-151.167 74.166 -216.5 131.499c-169.333 144.667 -254 333 -254 565c0 160.667 38.333 303.167 115 427.5s180.667 220.666 312 288.999s276 102.5 434 102.5
c146.667 0 283.667 -36.167 411 -108.5s228.5 -171 303.5 -296s112.5 -260.5 112.5 -406.5v-8h-311c-8 99.333 -36.667 189 -86 269s-114.5 142.5 -195.5 187.5s-172.833 67.5 -275.5 67.5c-96.667 0 -184.334 -23.5 -263.001 -70.5s-140.5 -110.5 -185.5 -190.5
s-67.5 -167.667 -67.5 -263c0 -114.667 27.333 -206.167 82 -274.5s121.167 -119.166 199.5 -152.499s183.833 -68.333 316.5 -105l153 -45.5c66 -19.667 119.833 -37.5 161.5 -53.5s85.5 -37.333 131.5 -64s91 -60 135 -100c88.667 -76 157.334 -170.167 206.001 -282.5
s73 -228.166 73 -347.499c0 -162 -41.833 -311.5 -125.5 -448.5s-196.167 -245.333 -337.5 -325s-293 -119.5 -455 -119.5c-171.333 0 -328.833 38.833 -472.5 116.5s-257.834 185.834 -342.501 324.501s-127 294.667 -127 468z" />
    <glyph glyph-name="threequarters" unicode="&#xbe;" 
d="M74 664l303.002 -0.00195312l-8 -17c0 -110.667 41.667 -206.5 125 -287.5s180.666 -121.5 291.999 -121.5c70.667 0 136.167 16 196.5 48s108.333 77 144 135s53.5 122.333 53.5 193c0 123.333 -39.167 216.833 -117.5 280.5s-184.166 112.167 -317.499 145.5
c-118 40.667 -202.833 72 -254.5 94s-103.167 56.333 -154.5 103c-120 110.667 -180 252.667 -180 426c0 118.667 29 226.334 87 323.001s137 172.167 237 226.5s207.667 81.5 323 81.5c109.333 0 212.166 -27.833 308.499 -83.5s172.666 -130.167 228.999 -223.5
s84.5 -193 84.5 -299h-303c0 95.333 -33.167 171 -99.5 227s-150.5 84 -252.5 84c-86 0 -159.333 -30.333 -220 -91s-91 -134 -91 -220c0 -76.667 17.667 -138.667 53 -186s79.666 -83.5 132.999 -108.5s122.333 -49.833 207 -74.5
c200 -63.333 355.167 -142.666 465.5 -237.999s165.5 -234.333 165.5 -417c0 -139.333 -31.667 -264 -95 -374s-150.666 -195.333 -261.999 -256s-235.333 -91 -372 -91c-118 0 -230.167 31.667 -336.5 95s-191.5 148 -255.5 254s-96 219 -96 339c0 2.66699 1.33301 8 4 16
s4 13.667 4 17z" />
    <glyph glyph-name="questiondown" unicode="&#xbf;" horiz-adv-x="999" 
d="M262 0v2245h303v-2245h-303zM-41 3031h303v-516h-303v516zM565 3031h303v-516h-303v516z" />
    <glyph glyph-name="Agrave" unicode="&#xc0;" horiz-adv-x="2843" 
d="M-57 0l1302 3031h336l1303 -3031h-328l-442 1016h-1409l-435 -1016h-327zM827 1294h1172l-582 1385z" />
    <glyph glyph-name="Agrave" unicode="&#x410;" horiz-adv-x="2843" 
d="M-57 0l1302 3031h336l1303 -3031h-328l-442 1016h-1409l-435 -1016h-327zM827 1294h1172l-582 1385z" />
    <glyph glyph-name="Aacute" unicode="&#xc1;" horiz-adv-x="2515" 
d="M311 0v3031h1671v-278h-1368v-1016h312c158 0 297.667 -6.66699 419 -20s249.333 -45 384 -95c79.333 -27.333 157.833 -80.166 235.5 -158.499s141 -171.166 190 -278.499s73.5 -215.666 73.5 -324.999c0 -93.333 -14.667 -183.833 -44 -271.5
s-71.833 -168.167 -127.5 -241.5s-121.167 -134.333 -196.5 -183c-85.333 -51.333 -171.333 -88.166 -258 -110.499s-163 -35.666 -229 -39.999s-182.333 -8.83301 -349 -13.5h-713zM614 278.995l377 -0.000976562c18.667 0 43.334 -1.5 74.001 -4.5
s52.334 -4.5 65.001 -4.5c209.333 0 376 33 500 99c86 44.667 156.667 112.834 212 204.501s83 184.5 83 278.5c0 86.667 -15.333 166.5 -46 239.5s-74.334 136 -131.001 189s-123.334 93.167 -200.001 120.5c-114 38 -277.667 57 -491 57h-443v-1179z" />
    <glyph glyph-name="Aacute" unicode="&#x411;" horiz-adv-x="2515" 
d="M311 0v3031h1671v-278h-1368v-1016h312c158 0 297.667 -6.66699 419 -20s249.333 -45 384 -95c79.333 -27.333 157.833 -80.166 235.5 -158.499s141 -171.166 190 -278.499s73.5 -215.666 73.5 -324.999c0 -93.333 -14.667 -183.833 -44 -271.5
s-71.833 -168.167 -127.5 -241.5s-121.167 -134.333 -196.5 -183c-85.333 -51.333 -171.333 -88.166 -258 -110.499s-163 -35.666 -229 -39.999s-182.333 -8.83301 -349 -13.5h-713zM614 278.995l377 -0.000976562c18.667 0 43.334 -1.5 74.001 -4.5
s52.334 -4.5 65.001 -4.5c209.333 0 376 33 500 99c86 44.667 156.667 112.834 212 204.501s83 184.5 83 278.5c0 86.667 -15.333 166.5 -46 239.5s-74.334 136 -131.001 189s-123.334 93.167 -200.001 120.5c-114 38 -277.667 57 -491 57h-443v-1179z" />
    <glyph glyph-name="Acircumflex" unicode="&#xc2;" horiz-adv-x="2515" 
d="M311 0v3031h713c144 0 270.833 -10.167 380.5 -30.5s212.167 -62.166 307.5 -125.5c107.333 -69.333 192.833 -162.166 256.5 -278.5c63.667 -116.333 95.5 -239.166 95.5 -368.5c0 -250 -111.667 -452 -335 -606c157.333 -64 279.833 -163.5 367.5 -298.5
s131.5 -289.5 131.5 -463.5c0 -93.333 -14.667 -183.833 -44 -271.5s-71.833 -168.167 -127.5 -241.5s-121.167 -134.333 -196.5 -183c-85.333 -51.333 -171.333 -88.166 -258 -110.499s-163 -35.666 -229 -39.999s-182.333 -8.83301 -349 -13.5h-713zM614 278.998
l377 -0.000976562c18.667 0 43.334 -1.5 74.001 -4.5s52.334 -4.5 65.001 -4.5c209.333 0 376 33 500 99c86 44.667 156.667 112.834 212 204.501s83 184.5 83 278.5c0 86.667 -15.333 166.5 -46 239.5s-74.334 136 -131.001 189s-123.334 93.167 -200.001 120.5
c-114 38 -277.667 57 -491 57h-443v-1179zM614 1737l327.998 -0.000976562c8.66699 0 22.334 -1.33301 41.001 -4s32.334 -4 41.001 -4c216.667 0 380.667 32.667 492 98c72 36 130.833 93.667 176.5 173s68.5 161 68.5 245c0 82 -22 161.833 -66 239.5
s-101 136.834 -171 177.501c-94 60.667 -238.667 91 -434 91h-476v-1016z" />
    <glyph glyph-name="Acircumflex" unicode="&#x412;" horiz-adv-x="2515" 
d="M311 0v3031h713c144 0 270.833 -10.167 380.5 -30.5s212.167 -62.166 307.5 -125.5c107.333 -69.333 192.833 -162.166 256.5 -278.5c63.667 -116.333 95.5 -239.166 95.5 -368.5c0 -250 -111.667 -452 -335 -606c157.333 -64 279.833 -163.5 367.5 -298.5
s131.5 -289.5 131.5 -463.5c0 -93.333 -14.667 -183.833 -44 -271.5s-71.833 -168.167 -127.5 -241.5s-121.167 -134.333 -196.5 -183c-85.333 -51.333 -171.333 -88.166 -258 -110.499s-163 -35.666 -229 -39.999s-182.333 -8.83301 -349 -13.5h-713zM614 278.998
l377 -0.000976562c18.667 0 43.334 -1.5 74.001 -4.5s52.334 -4.5 65.001 -4.5c209.333 0 376 33 500 99c86 44.667 156.667 112.834 212 204.501s83 184.5 83 278.5c0 86.667 -15.333 166.5 -46 239.5s-74.334 136 -131.001 189s-123.334 93.167 -200.001 120.5
c-114 38 -277.667 57 -491 57h-443v-1179zM614 1737l327.998 -0.000976562c8.66699 0 22.334 -1.33301 41.001 -4s32.334 -4 41.001 -4c216.667 0 380.667 32.667 492 98c72 36 130.833 93.667 176.5 173s68.5 161 68.5 245c0 82 -22 161.833 -66 239.5
s-101 136.834 -171 177.501c-94 60.667 -238.667 91 -434 91h-476v-1016z" />
    <glyph glyph-name="Atilde" unicode="&#xc3;" horiz-adv-x="1901" 
d="M311 3031h1557v-278h-1254v-2753h-303v3031z" />
    <glyph glyph-name="Atilde" unicode="&#x413;" horiz-adv-x="1901" 
d="M311 3031h1557v-278h-1254v-2753h-303v3031z" />
    <glyph glyph-name="Adieresis" unicode="&#xc4;" horiz-adv-x="3031" 
d="M1352 3031h336l1114 -2761h278v-802h-303v532h-2507v-532h-303v802h279zM2466 279l-950 2408l-943 -2408h1893z" />
    <glyph glyph-name="Adieresis" unicode="&#x414;" horiz-adv-x="3031" 
d="M1352 3031h336l1114 -2761h278v-802h-303v532h-2507v-532h-303v802h279zM2466 279l-950 2408l-943 -2408h1893z" />
    <glyph glyph-name="Aring" unicode="&#xc5;" horiz-adv-x="2277" 
d="M311 0v3031h1655v-278h-1352v-1090h1311v-270h-1311v-1114h1352v-279h-1655z" />
    <glyph glyph-name="Aring" unicode="&#x415;" horiz-adv-x="2277" 
d="M311 0v3031h1655v-278h-1352v-1090h1311v-270h-1311v-1114h1352v-279h-1655z" />
    <glyph glyph-name="AE" unicode="&#xc6;" horiz-adv-x="3604" 
d="M1647 0v909l-304 385l-884 -1294h-377l1065 1556l-1065 1475h385l1180 -1712v1712h303v-1712l1179 1712h385l-1065 -1475l1065 -1556h-376l-885 1294l-303 -385v-909h-303z" />
    <glyph glyph-name="AE" unicode="&#x416;" horiz-adv-x="3604" 
d="M1647 0v909l-304 385l-884 -1294h-377l1065 1556l-1065 1475h385l1180 -1712v1712h303v-1712l1179 1712h385l-1065 -1475l1065 -1556h-376l-885 1294l-303 -385v-909h-303z" />
    <glyph glyph-name="Ccedilla" unicode="&#xc7;" horiz-adv-x="2466" 
d="M1180 1458l-237.998 -0.000976562v279h254c74 0 155.333 19.333 244 58s164.334 97.834 227.001 177.501s94 175.834 94 288.5c0 95.333 -22.5 183 -67.5 263s-106.833 143.5 -185.5 190.5s-166.334 70.5 -263.001 70.5c-154 0 -283.333 -49 -388 -147
s-163.667 -223.667 -177 -377h-303l-8 8c0 147.333 38.167 283.166 114.5 407.5c76.333 124.333 178.666 222.666 306.999 295c128.333 72.333 266.166 108.5 413.499 108.5c158 0 302.5 -34.167 433.5 -102.5s234.833 -164.666 311.5 -288.999s115 -266.833 115 -427.5
c0 -232 -84.667 -420.333 -254 -565c-48.667 -40.667 -97.667 -73.667 -147 -99c68 -29.333 139 -73 213 -131c88.667 -76 157.167 -169.833 205.5 -281.5s72.5 -227.834 72.5 -348.501c0 -123.333 -23.167 -239.333 -69.5 -348s-111.333 -203.834 -195 -285.501
s-181.834 -145.334 -294.501 -191.001s-232 -68.5 -358 -68.5c-171.333 0 -328.833 38.833 -472.5 116.5s-257.834 185.834 -342.501 324.501s-127 294.667 -127 468h319c0 -109.333 25 -211.833 75 -307.5s120.833 -172.167 212.5 -229.5s195.167 -86 310.5 -86l17 9
c112.667 0 216.834 26 312.501 78s171.167 123.667 226.5 215s83 193 83 305c0 80.667 -18.667 159.834 -56 237.501s-86.666 143.167 -147.999 196.5c-78.667 64 -152.167 111.333 -220.5 142s-150.5 46 -246.5 46z" />
    <glyph glyph-name="Ccedilla" unicode="&#x417;" horiz-adv-x="2466" 
d="M1180 1458l-237.998 -0.000976562v279h254c74 0 155.333 19.333 244 58s164.334 97.834 227.001 177.501s94 175.834 94 288.5c0 95.333 -22.5 183 -67.5 263s-106.833 143.5 -185.5 190.5s-166.334 70.5 -263.001 70.5c-154 0 -283.333 -49 -388 -147
s-163.667 -223.667 -177 -377h-303l-8 8c0 147.333 38.167 283.166 114.5 407.5c76.333 124.333 178.666 222.666 306.999 295c128.333 72.333 266.166 108.5 413.499 108.5c158 0 302.5 -34.167 433.5 -102.5s234.833 -164.666 311.5 -288.999s115 -266.833 115 -427.5
c0 -232 -84.667 -420.333 -254 -565c-48.667 -40.667 -97.667 -73.667 -147 -99c68 -29.333 139 -73 213 -131c88.667 -76 157.167 -169.833 205.5 -281.5s72.5 -227.834 72.5 -348.501c0 -123.333 -23.167 -239.333 -69.5 -348s-111.333 -203.834 -195 -285.501
s-181.834 -145.334 -294.501 -191.001s-232 -68.5 -358 -68.5c-171.333 0 -328.833 38.833 -472.5 116.5s-257.834 185.834 -342.501 324.501s-127 294.667 -127 468h319c0 -109.333 25 -211.833 75 -307.5s120.833 -172.167 212.5 -229.5s195.167 -86 310.5 -86l17 9
c112.667 0 216.834 26 312.501 78s171.167 123.667 226.5 215s83 193 83 305c0 80.667 -18.667 159.834 -56 237.501s-86.666 143.167 -147.999 196.5c-78.667 64 -152.167 111.333 -220.5 142s-150.5 46 -246.5 46z" />
    <glyph glyph-name="Egrave" unicode="&#xc8;" horiz-adv-x="3031" 
d="M311 3031h303v-2662l1803 2662h303v-3031h-303v2515l-1696 -2515h-410v3031z" />
    <glyph glyph-name="Egrave" unicode="&#x418;" horiz-adv-x="3031" 
d="M311 3031h303v-2662l1803 2662h303v-3031h-303v2515l-1696 -2515h-410v3031z" />
    <glyph glyph-name="Eacute" unicode="&#xc9;" horiz-adv-x="3031" 
d="M311 3031h303v-2662l1803 2662h303v-3031h-303v2515l-1696 -2515h-410v3031zM901 3359v278h1286v-278h-1286z" />
    <glyph glyph-name="Eacute" unicode="&#x419;" horiz-adv-x="3031" 
d="M311 3031h303v-2662l1803 2662h303v-3031h-303v2515l-1696 -2515h-410v3031zM901 3359v278h1286v-278h-1286z" />
    <glyph glyph-name="Ecircumflex" unicode="&#xca;" horiz-adv-x="2515" 
d="M311 0v3031h303v-1745l1401 1745h385l-1196 -1475l1196 -1556h-377l-1015 1311l-394 -484v-827h-303z" />
    <glyph glyph-name="Ecircumflex" unicode="&#x41a;" horiz-adv-x="2515" 
d="M311 0v3031h303v-1745l1401 1745h385l-1196 -1475l1196 -1556h-377l-1015 1311l-394 -484v-827h-303z" />
    <glyph glyph-name="Edieresis" unicode="&#xcb;" horiz-adv-x="2843" 
d="M-57 0l1302 3031h336l1303 -3031h-328l-1139 2679l-1147 -2679h-327z" />
    <glyph glyph-name="Edieresis" unicode="&#x41b;" horiz-adv-x="2843" 
d="M-57 0l1302 3031h336l1303 -3031h-328l-1139 2679l-1147 -2679h-327z" />
    <glyph glyph-name="Igrave" unicode="&#xcc;" horiz-adv-x="3744" 
d="M311 0v3031h467l1106 -2580l1106 2580h467v-3031h-303v2695l-1139 -2695h-262l-1139 2695v-2695h-303z" />
    <glyph glyph-name="Igrave" unicode="&#x41c;" horiz-adv-x="3744" 
d="M311 0v3031h467l1106 -2580l1106 2580h467v-3031h-303v2695l-1139 -2695h-262l-1139 2695v-2695h-303z" />
    <glyph glyph-name="Iacute" unicode="&#xcd;" horiz-adv-x="2802" 
d="M311 0v3031h303v-1335h1573v1335h303v-3031h-303v1425h-1573v-1425h-303z" />
    <glyph glyph-name="Iacute" unicode="&#x41d;" horiz-adv-x="2802" 
d="M311 0v3031h303v-1335h1573v1335h303v-3031h-303v1425h-1573v-1425h-303z" />
    <glyph glyph-name="Icircumflex" unicode="&#xce;" horiz-adv-x="3654" 
d="M1802 3080c282.667 0 547.502 -69.334 794.502 -208.001s444 -327.167 591 -565.5s220.5 -499.166 220.5 -782.499c0 -286 -72.333 -550.333 -217 -793s-340.834 -434.667 -588.501 -576s-514.5 -212 -800.5 -212c-207.333 0 -407.333 39.667 -600 119
s-364.334 190.666 -515.001 333.999s-268.667 309.833 -354 499.5s-128 390.834 -128 603.501c0 290 71.833 555.833 215.5 797.5s338.167 432.667 583.5 573s511.333 210.5 798 210.5zM1810 2785l0.000976562 7.99902c-232 -2.66699 -448.333 -62 -649 -178
s-359.667 -272.833 -477 -470.5s-176 -412.834 -176 -645.501c0 -168.667 34.667 -329.667 104 -483s165.333 -288.666 288 -405.999s262.667 -208.666 420 -273.999s320.666 -98 489.999 -98c234 0 450.167 57.5 648.5 172.5s355.666 271.167 472 468.5
c116.333 197.333 174.5 412.333 174.5 645c0 171.333 -34.667 334.5 -104 489.5s-164.5 290.333 -285.5 406s-259.667 205.5 -416 269.5s-319.5 96 -489.5 96z" />
    <glyph glyph-name="Icircumflex" unicode="&#x41e;" horiz-adv-x="3654" 
d="M1802 3080c282.667 0 547.502 -69.334 794.502 -208.001s444 -327.167 591 -565.5s220.5 -499.166 220.5 -782.499c0 -286 -72.333 -550.333 -217 -793s-340.834 -434.667 -588.501 -576s-514.5 -212 -800.5 -212c-207.333 0 -407.333 39.667 -600 119
s-364.334 190.666 -515.001 333.999s-268.667 309.833 -354 499.5s-128 390.834 -128 603.501c0 290 71.833 555.833 215.5 797.5s338.167 432.667 583.5 573s511.333 210.5 798 210.5zM1810 2785l0.000976562 7.99902c-232 -2.66699 -448.333 -62 -649 -178
s-359.667 -272.833 -477 -470.5s-176 -412.834 -176 -645.501c0 -168.667 34.667 -329.667 104 -483s165.333 -288.666 288 -405.999s262.667 -208.666 420 -273.999s320.666 -98 489.999 -98c234 0 450.167 57.5 648.5 172.5s355.666 271.167 472 468.5
c116.333 197.333 174.5 412.333 174.5 645c0 171.333 -34.667 334.5 -104 489.5s-164.5 290.333 -285.5 406s-259.667 205.5 -416 269.5s-319.5 96 -489.5 96z" />
    <glyph glyph-name="Idieresis" unicode="&#xcf;" horiz-adv-x="2802" 
d="M311 0v3031h2179v-3031h-303v2761h-1573v-2761h-303z" />
    <glyph glyph-name="Idieresis" unicode="&#x41f;" horiz-adv-x="2802" 
d="M311 0v3031h2179v-3031h-303v2761h-1573v-2761h-303z" />
    <glyph glyph-name="Eth" unicode="&#xd0;" horiz-adv-x="2515" 
d="M311 0l-0.000976562 3031h795c200.667 -5.33301 359 -16.833 475 -34.5s228 -60.834 336 -129.5c128.667 -80.667 227.667 -186.667 297 -318s104 -273.666 104 -427c0 -298.667 -114.667 -533.667 -344 -705c-108 -78.667 -224.667 -131 -350 -157
s-270.666 -39 -435.999 -39h-574v-1221h-303zM613.999 1499l525 0.000976562c133.333 0 247.333 7.66699 342 23s182.667 48.666 264 99.999c56.667 36 105.167 80.333 145.5 133s71.166 110.5 92.499 173.5s32 127.5 32 193.5c0 130 -33.167 244.5 -99.5 343.5
s-158.833 172.833 -277.5 221.5c-101.333 44 -237.666 66 -408.999 66h-615v-1254z" />
    <glyph glyph-name="Eth" unicode="&#x420;" horiz-adv-x="2515" 
d="M311 0l-0.000976562 3031h795c200.667 -5.33301 359 -16.833 475 -34.5s228 -60.834 336 -129.5c128.667 -80.667 227.667 -186.667 297 -318s104 -273.666 104 -427c0 -298.667 -114.667 -533.667 -344 -705c-108 -78.667 -224.667 -131 -350 -157
s-270.666 -39 -435.999 -39h-574v-1221h-303zM613.999 1499l525 0.000976562c133.333 0 247.333 7.66699 342 23s182.667 48.666 264 99.999c56.667 36 105.167 80.333 145.5 133s71.166 110.5 92.499 173.5s32 127.5 32 193.5c0 130 -33.167 244.5 -99.5 343.5
s-158.833 172.833 -277.5 221.5c-101.333 44 -237.666 66 -408.999 66h-615v-1254z" />
    <glyph glyph-name="Ntilde" unicode="&#xd1;" horiz-adv-x="3367" 
d="M3146 2253h-336.005c-74 111.333 -168 207.166 -282 287.5c-114 80.333 -238.333 141.166 -373 182.5c-134.667 41.333 -268.667 62 -402 62c-168.667 0 -330.167 -33.833 -484.5 -101.5s-290.666 -161.167 -408.999 -280.5s-210.666 -255.166 -276.999 -407.5
c-66.333 -152.333 -99.5 -309.5 -99.5 -471.5c0 -228 59 -441.333 177 -640s276.167 -356 474.5 -472s409.833 -174 634.5 -174c134.667 0 267.334 22.833 398.001 68.5s252.5 111.167 365.5 196.5s208.167 182.666 285.5 291.999h336
c-85.333 -166 -200.166 -313.833 -344.5 -443.5c-144.333 -129.667 -307 -230.167 -488 -301.5s-365.167 -107 -552.5 -107c-289.333 0 -555.833 69.5 -799.5 208.5s-436.167 329.833 -577.5 572.5s-212 509.334 -212 800.001c0 280 70.333 539.667 211 779
s331.334 428.666 572.001 568c240.667 139.333 501.334 209 782.001 209c326 0 618 -84.667 876 -254c106.667 -68.667 211.5 -156 314.5 -262s173.167 -209.667 210.5 -311z" />
    <glyph glyph-name="Ntilde" unicode="&#x421;" horiz-adv-x="3367" 
d="M3146 2253h-336.005c-74 111.333 -168 207.166 -282 287.5c-114 80.333 -238.333 141.166 -373 182.5c-134.667 41.333 -268.667 62 -402 62c-168.667 0 -330.167 -33.833 -484.5 -101.5s-290.666 -161.167 -408.999 -280.5s-210.666 -255.166 -276.999 -407.5
c-66.333 -152.333 -99.5 -309.5 -99.5 -471.5c0 -228 59 -441.333 177 -640s276.167 -356 474.5 -472s409.833 -174 634.5 -174c134.667 0 267.334 22.833 398.001 68.5s252.5 111.167 365.5 196.5s208.167 182.666 285.5 291.999h336
c-85.333 -166 -200.166 -313.833 -344.5 -443.5c-144.333 -129.667 -307 -230.167 -488 -301.5s-365.167 -107 -552.5 -107c-289.333 0 -555.833 69.5 -799.5 208.5s-436.167 329.833 -577.5 572.5s-212 509.334 -212 800.001c0 280 70.333 539.667 211 779
s331.334 428.666 572.001 568c240.667 139.333 501.334 209 782.001 209c326 0 618 -84.667 876 -254c106.667 -68.667 211.5 -156 314.5 -262s173.167 -209.667 210.5 -311z" />
    <glyph glyph-name="Ograve" unicode="&#xd2;" horiz-adv-x="1753" 
d="M729 0v2753h-696v278h1687v-278h-688v-2753h-303z" />
    <glyph glyph-name="Ograve" unicode="&#x422;" horiz-adv-x="1753" 
d="M729 0v2753h-696v278h1687v-278h-688v-2753h-303z" />
    <glyph glyph-name="Oacute" unicode="&#xd3;" horiz-adv-x="2376" 
d="M664 0l483 983l-1139 2048h336l959 -1737l786 1737h328l-1418 -3031h-335z" />
    <glyph glyph-name="Oacute" unicode="&#x423;" horiz-adv-x="2376" 
d="M664 0l483 983l-1139 2048h336l959 -1737l786 1737h328l-1418 -3031h-335z" />
    <glyph glyph-name="Ocircumflex" unicode="&#xd4;" horiz-adv-x="3744" 
d="M2015 0l-302.999 0.000976562v369h-352c-210.667 0 -405.167 54.833 -583.5 164.5s-319.5 256.667 -423.5 441s-156 381.166 -156 590.499c0 201.333 53.333 391.333 160 570s249.667 320.834 429 426.5c179.333 105.667 370.666 158.5 573.999 158.5h352v311h303v-311
h352c203.333 0 394.833 -52.833 574.5 -158.5s322.834 -247.834 429.5 -426.501c106.667 -178.667 160 -368.667 160 -570c0 -209.333 -52 -406.166 -156 -590.499s-245.167 -331.333 -423.5 -441s-373.166 -164.5 -584.5 -164.5h-352v-369zM1712 664.001l-0.00195312 1761
h-352c-226 0 -425.333 -82 -598 -246c-174.667 -166.667 -262 -371.334 -262 -614.001c0 -162 36.833 -312 110.5 -450s176.334 -247.667 308.001 -329s278.834 -122 441.501 -122h352zM2015 664.002l352.001 -0.000976562c162.667 0 309.834 40.5 441.5 121.5
c131.667 81 234.5 190.667 308.5 329s111 288.5 111 450.5c0 242.667 -87.333 447.334 -262 614.001c-172.667 164 -372.334 246 -599.001 246h-352v-1761z" />
    <glyph glyph-name="Ocircumflex" unicode="&#x424;" horiz-adv-x="3744" 
d="M2015 0l-302.999 0.000976562v369h-352c-210.667 0 -405.167 54.833 -583.5 164.5s-319.5 256.667 -423.5 441s-156 381.166 -156 590.499c0 201.333 53.333 391.333 160 570s249.667 320.834 429 426.5c179.333 105.667 370.666 158.5 573.999 158.5h352v311h303v-311
h352c203.333 0 394.833 -52.833 574.5 -158.5s322.834 -247.834 429.5 -426.501c106.667 -178.667 160 -368.667 160 -570c0 -209.333 -52 -406.166 -156 -590.499s-245.167 -331.333 -423.5 -441s-373.166 -164.5 -584.5 -164.5h-352v-369zM1712 664.001l-0.00195312 1761
h-352c-226 0 -425.333 -82 -598 -246c-174.667 -166.667 -262 -371.334 -262 -614.001c0 -162 36.833 -312 110.5 -450s176.334 -247.667 308.001 -329s278.834 -122 441.501 -122h352zM2015 664.002l352.001 -0.000976562c162.667 0 309.834 40.5 441.5 121.5
c131.667 81 234.5 190.667 308.5 329s111 288.5 111 450.5c0 242.667 -87.333 447.334 -262 614.001c-172.667 164 -372.334 246 -599.001 246h-352v-1761z" />
    <glyph glyph-name="Otilde" unicode="&#xd5;" horiz-adv-x="2515" 
d="M33 0l1032 1548l-967 1483h353l802 -1212l795 1212h352l-975 -1483l1041 -1548h-361l-852 1294l-860 -1294h-360z" />
    <glyph glyph-name="Otilde" unicode="&#x425;" horiz-adv-x="2515" 
d="M33 0l1032 1548l-967 1483h353l802 -1212l795 1212h352l-975 -1483l1041 -1548h-361l-852 1294l-860 -1294h-360z" />
    <glyph glyph-name="Odieresis" unicode="&#xd6;" horiz-adv-x="3031" 
d="M311 3031h303v-2761h1573v2761h303v-2761h459v-802h-303v532h-2335v3031z" />
    <glyph glyph-name="Odieresis" unicode="&#x426;" horiz-adv-x="3031" 
d="M311 3031h303v-2761h1573v2761h303v-2761h459v-802h-303v532h-2335v3031z" />
    <glyph glyph-name="multiply" unicode="&#xd7;" horiz-adv-x="2466" 
d="M1851 1548v1483h303v-3031h-303v1278h-942c-134.667 0 -249 11.833 -343 35.5s-170.333 61 -229 112s-102.167 118.667 -130.5 203s-42.5 188.833 -42.5 313.5v1089h303v-1073c0 -162.667 36.167 -271.667 108.5 -327s191.833 -83 358.5 -83h917z" />
    <glyph glyph-name="multiply" unicode="&#x427;" horiz-adv-x="2466" 
d="M1851 1548v1483h303v-3031h-303v1278h-942c-134.667 0 -249 11.833 -343 35.5s-170.333 61 -229 112s-102.167 118.667 -130.5 203s-42.5 188.833 -42.5 313.5v1089h303v-1073c0 -162.667 36.167 -271.667 108.5 -327s191.833 -83 358.5 -83h917z" />
    <glyph glyph-name="Oslash" unicode="&#xd8;" horiz-adv-x="4121" 
d="M311 3031h303v-2761h1328v2761h303v-2761h1310v2761h303v-3031h-3547v3031z" />
    <glyph glyph-name="Oslash" unicode="&#x428;" horiz-adv-x="4121" 
d="M311 3031h303v-2761h1328v2761h303v-2761h1310v2761h303v-3031h-3547v3031z" />
    <glyph glyph-name="Ugrave" unicode="&#xd9;" horiz-adv-x="4407" 
d="M311 3031h303v-2761h1328v2761h303v-2761h1310v2761h303v-2761h459v-802h-303v532h-3703v3031z" />
    <glyph glyph-name="Ugrave" unicode="&#x429;" horiz-adv-x="4407" 
d="M311 3031h303v-2761h1328v2761h303v-2761h1310v2761h303v-2761h459v-802h-303v532h-3703v3031z" />
    <glyph glyph-name="Uacute" unicode="&#xda;" horiz-adv-x="2843" 
d="M25 3031l991 -0.00195312v-1221h516c164.667 0 310 -13.167 436 -39.5s242.667 -78.5 350 -156.5c229.333 -171.333 344 -406.333 344 -705c0 -153.333 -34.833 -295.833 -104.5 -427.5s-168.5 -237.5 -296.5 -317.5c-109.333 -69.333 -221.833 -112.666 -337.5 -129.999
s-273.5 -28.666 -473.5 -33.999h-737v2753h-688v278zM1016 1532l0.00292969 -1253h336c29.333 0 67.166 -1.5 113.499 -4.5s82.166 -4.5 107.499 -4.5c159.333 0 295.666 24.667 408.999 74c118.667 48.667 211.167 122.334 277.5 221.001s99.5 213.334 99.5 344.001
c0 101.333 -23.833 197 -71.5 287s-113.834 161 -198.5 213c-79.333 51.333 -166.833 84.666 -262.5 99.999s-210.167 23 -343.5 23h-467z" />
    <glyph glyph-name="Uacute" unicode="&#x42a;" horiz-adv-x="2843" 
d="M25 3031l991 -0.00195312v-1221h516c164.667 0 310 -13.167 436 -39.5s242.667 -78.5 350 -156.5c229.333 -171.333 344 -406.333 344 -705c0 -153.333 -34.833 -295.833 -104.5 -427.5s-168.5 -237.5 -296.5 -317.5c-109.333 -69.333 -221.833 -112.666 -337.5 -129.999
s-273.5 -28.666 -473.5 -33.999h-737v2753h-688v278zM1016 1532l0.00292969 -1253h336c29.333 0 67.166 -1.5 113.499 -4.5s82.166 -4.5 107.499 -4.5c159.333 0 295.666 24.667 408.999 74c118.667 48.667 211.167 122.334 277.5 221.001s99.5 213.334 99.5 344.001
c0 101.333 -23.833 197 -71.5 287s-113.834 161 -198.5 213c-79.333 51.333 -166.833 84.666 -262.5 99.999s-210.167 23 -343.5 23h-467z" />
    <glyph glyph-name="Ucircumflex" unicode="&#xdb;" horiz-adv-x="3129" 
d="M311 3031l303 -0.00195312v-1221h492c164.667 0 310 -13.167 436 -39.5s242.667 -78.5 350 -156.5c229.333 -171.333 344 -406.333 344 -705c0 -153.333 -34.833 -295.833 -104.5 -427.5s-168.5 -237.5 -296.5 -317.5
c-109.333 -69.333 -221.833 -112.666 -337.5 -129.999s-273.5 -28.666 -473.5 -33.999h-713v3031zM614 1532l0.00390625 -1253h312c29.333 0 67.166 -1.5 113.499 -4.5s82.166 -4.5 107.499 -4.5c159.333 0 295.666 24.667 408.999 74
c118.667 48.667 211.167 122.334 277.5 221.001s99.5 213.334 99.5 344.001c0 101.333 -23.833 197 -71.5 287s-113.834 161 -198.501 213c-79.333 51.333 -166.833 84.666 -262.5 99.999s-210.167 23 -343.5 23h-443zM2507 -0.00292969v3031h303v-3031h-303z" />
    <glyph glyph-name="Ucircumflex" unicode="&#x42b;" horiz-adv-x="3129" 
d="M311 3031l303 -0.00195312v-1221h492c164.667 0 310 -13.167 436 -39.5s242.667 -78.5 350 -156.5c229.333 -171.333 344 -406.333 344 -705c0 -153.333 -34.833 -295.833 -104.5 -427.5s-168.5 -237.5 -296.5 -317.5
c-109.333 -69.333 -221.833 -112.666 -337.5 -129.999s-273.5 -28.666 -473.5 -33.999h-713v3031zM614 1532l0.00390625 -1253h312c29.333 0 67.166 -1.5 113.499 -4.5s82.166 -4.5 107.499 -4.5c159.333 0 295.666 24.667 408.999 74
c118.667 48.667 211.167 122.334 277.5 221.001s99.5 213.334 99.5 344.001c0 101.333 -23.833 197 -71.5 287s-113.834 161 -198.501 213c-79.333 51.333 -166.833 84.666 -262.5 99.999s-210.167 23 -343.5 23h-443zM2507 -0.00292969v3031h303v-3031h-303z" />
    <glyph glyph-name="Udieresis" unicode="&#xdc;" horiz-adv-x="2515" 
d="M311 3031l303 -0.00195312v-1221h574c164.667 0 310 -13.167 436 -39.5s242.667 -78.5 350 -156.5c229.333 -171.333 344 -406.333 344 -705c0 -153.333 -34.833 -295.833 -104.5 -427.5s-168.5 -237.5 -296.5 -317.5
c-109.333 -69.333 -221.833 -112.666 -337.5 -129.999s-273.5 -28.666 -473.5 -33.999h-795v3031zM614 1532l0.00390625 -1253h394c29.333 0 67.166 -1.5 113.499 -4.5s82.166 -4.5 107.499 -4.5c159.333 0 295.666 24.667 408.999 74
c118.667 48.667 211.167 122.334 277.5 221.001s99.5 213.334 99.5 344.001c0 101.333 -23.833 197 -71.5 287s-113.834 161 -198.501 213c-79.333 51.333 -166.833 84.666 -262.5 99.999s-210.167 23 -343.5 23h-525z" />
    <glyph glyph-name="Udieresis" unicode="&#x42c;" horiz-adv-x="2515" 
d="M311 3031l303 -0.00195312v-1221h574c164.667 0 310 -13.167 436 -39.5s242.667 -78.5 350 -156.5c229.333 -171.333 344 -406.333 344 -705c0 -153.333 -34.833 -295.833 -104.5 -427.5s-168.5 -237.5 -296.5 -317.5
c-109.333 -69.333 -221.833 -112.666 -337.5 -129.999s-273.5 -28.666 -473.5 -33.999h-795v3031zM614 1532l0.00390625 -1253h394c29.333 0 67.166 -1.5 113.499 -4.5s82.166 -4.5 107.499 -4.5c159.333 0 295.666 24.667 408.999 74
c118.667 48.667 211.167 122.334 277.5 221.001s99.5 213.334 99.5 344.001c0 101.333 -23.833 197 -71.5 287s-113.834 161 -198.501 213c-79.333 51.333 -166.833 84.666 -262.5 99.999s-210.167 23 -343.5 23h-525z" />
    <glyph glyph-name="Yacute" unicode="&#xdd;" horiz-adv-x="3416" 
d="M2900 1393l-1548 0.00292969v270h1540c-24.667 199.333 -96.167 385.166 -214.5 557.499s-269.333 309.5 -453 411.5s-379.167 153 -586.5 153c-133.333 0 -267.333 -20.667 -402 -62s-258.834 -102.333 -372.501 -183s-207.5 -176.334 -281.5 -287.001h-336
c37.333 101.333 107.333 204.833 210 310.5s207.334 193.167 314.001 262.5c258 169.333 550.333 254 877 254c280.667 0 541.167 -69.5 781.501 -208.5c240.333 -139 430.833 -328.333 571.5 -568s211 -499.5 211 -779.5c0 -290.667 -70.5 -557.334 -211.5 -800.001
s-333.333 -433.5 -577 -572.5s-510.5 -208.5 -800.5 -208.5c-188 0 -372.167 35.667 -552.5 107s-342.666 171.833 -486.999 301.5s-259.166 277.5 -344.499 443.5h335c77.333 -109.333 172.5 -206.666 285.5 -291.999s234.833 -150.833 365.5 -196.5
s263.334 -68.5 398.001 -68.5c208.667 0 406.834 51 594.501 153s342.334 241.167 464 417.5c121.667 176.333 194.834 371.166 219.5 584.499z" />
    <glyph glyph-name="Yacute" unicode="&#x42d;" horiz-adv-x="3416" 
d="M2900 1393l-1548 0.00292969v270h1540c-24.667 199.333 -96.167 385.166 -214.5 557.499s-269.333 309.5 -453 411.5s-379.167 153 -586.5 153c-133.333 0 -267.333 -20.667 -402 -62s-258.834 -102.333 -372.501 -183s-207.5 -176.334 -281.5 -287.001h-336
c37.333 101.333 107.333 204.833 210 310.5s207.334 193.167 314.001 262.5c258 169.333 550.333 254 877 254c280.667 0 541.167 -69.5 781.501 -208.5c240.333 -139 430.833 -328.333 571.5 -568s211 -499.5 211 -779.5c0 -290.667 -70.5 -557.334 -211.5 -800.001
s-333.333 -433.5 -577 -572.5s-510.5 -208.5 -800.5 -208.5c-188 0 -372.167 35.667 -552.5 107s-342.666 171.833 -486.999 301.5s-259.166 277.5 -344.499 443.5h335c77.333 -109.333 172.5 -206.666 285.5 -291.999s234.833 -150.833 365.5 -196.5
s263.334 -68.5 398.001 -68.5c208.667 0 406.834 51 594.501 153s342.334 241.167 464 417.5c121.667 176.333 194.834 371.166 219.5 584.499z" />
    <glyph glyph-name="Thorn" unicode="&#xde;" horiz-adv-x="4743" 
d="M614 1425l-0.00292969 -1425h-303v3031h303v-1335h648c22.667 197.333 78.834 380.5 168.501 549.5s205.834 316 348.501 441s305.334 221.833 488.001 290.5s374.667 103 576 103c281.333 0 545.833 -69.333 793.5 -208s444.834 -327.334 591.5 -566.001
s220 -499.334 220 -782.001c0 -286 -72.334 -550.333 -217 -793c-144.667 -242.667 -340.667 -434.667 -588 -576s-514 -212 -800 -212c-268.667 0 -523 66 -763 198s-434.333 311.5 -583 538.5s-230 475.5 -244 745.5h-639zM2851 2785l-0.000976562 8.00195
c-233.333 -2.66699 -450.166 -62 -650.499 -178s-359.166 -272.833 -476.499 -470.5s-176 -412.834 -176 -645.501c0 -226 60.167 -435.833 180.5 -629.5s280.833 -347.334 481.5 -461.001s414.334 -170.5 641 -170.5c234 0 450.167 57.5 648.5 172.5
s355.5 271.167 471.5 468.5s174 412.333 174 645c0 171.333 -34.666 334.5 -104 489.5c-69.333 155 -164 290 -284 405s-258.833 204.833 -416.5 269.5s-320.834 97 -489.501 97z" />
    <glyph glyph-name="Thorn" unicode="&#x42e;" horiz-adv-x="4743" 
d="M614 1425l-0.00292969 -1425h-303v3031h303v-1335h648c22.667 197.333 78.834 380.5 168.501 549.5s205.834 316 348.501 441s305.334 221.833 488.001 290.5s374.667 103 576 103c281.333 0 545.833 -69.333 793.5 -208s444.834 -327.334 591.5 -566.001
s220 -499.334 220 -782.001c0 -286 -72.334 -550.333 -217 -793c-144.667 -242.667 -340.667 -434.667 -588 -576s-514 -212 -800 -212c-268.667 0 -523 66 -763 198s-434.333 311.5 -583 538.5s-230 475.5 -244 745.5h-639zM2851 2785l-0.000976562 8.00195
c-233.333 -2.66699 -450.166 -62 -650.499 -178s-359.166 -272.833 -476.499 -470.5s-176 -412.834 -176 -645.501c0 -226 60.167 -435.833 180.5 -629.5s280.833 -347.334 481.5 -461.001s414.334 -170.5 641 -170.5c234 0 450.167 57.5 648.5 172.5
s355.5 271.167 471.5 468.5s174 412.333 174 645c0 171.333 -34.666 334.5 -104 489.5c-69.333 155 -164 290 -284 405s-258.833 204.833 -416.5 269.5s-320.834 97 -489.501 97z" />
    <glyph glyph-name="germandbls" unicode="&#xdf;" horiz-adv-x="2703" 
d="M2433 0l-303.003 0.00195312v2753h-483c-160 0 -291.667 -7.83301 -395 -23.5s-198.333 -54.5 -285 -116.5c-86.667 -61.333 -156.167 -141.5 -208.5 -240.5s-78.5 -198.833 -78.5 -299.5c0 -134 34.833 -255.5 104.5 -364.5s165.834 -192.5 288.501 -250.5
c139.333 -60 325 -90 557 -90c10.667 0 28.334 1.33301 53.001 4s42.667 4 54 4h90l-1032 -1376h-377l852 1130c-161.333 6 -310.5 50.167 -447.5 132.5s-245.5 192.166 -325.5 329.499s-120 286.666 -120 447.999c0 178.667 40.833 341.667 122.5 489
s199.167 265.666 352.5 355c111.333 61.333 235.833 101.166 373.5 119.5c137.667 18.333 299.834 27.5 486.501 27.5h721v-3031z" />
    <glyph glyph-name="germandbls" unicode="&#x42f;" horiz-adv-x="2703" 
d="M2433 0l-303.003 0.00195312v2753h-483c-160 0 -291.667 -7.83301 -395 -23.5s-198.333 -54.5 -285 -116.5c-86.667 -61.333 -156.167 -141.5 -208.5 -240.5s-78.5 -198.833 -78.5 -299.5c0 -134 34.833 -255.5 104.5 -364.5s165.834 -192.5 288.501 -250.5
c139.333 -60 325 -90 557 -90c10.667 0 28.334 1.33301 53.001 4s42.667 4 54 4h90l-1032 -1376h-377l852 1130c-161.333 6 -310.5 50.167 -447.5 132.5s-245.5 192.166 -325.5 329.499s-120 286.666 -120 447.999c0 178.667 40.833 341.667 122.5 489
s199.167 265.666 352.5 355c111.333 61.333 235.833 101.166 373.5 119.5c137.667 18.333 299.834 27.5 486.501 27.5h721v-3031z" />
    <glyph glyph-name="agrave" unicode="&#xe0;" horiz-adv-x="2753" 
d="M2507 2245l0.00195312 -2245h-287v426c-55.333 -103.333 -128.166 -191.166 -218.5 -263.499c-90.333 -72.333 -191.333 -127 -303 -164s-227.167 -55.5 -346.5 -55.5c-173.333 0 -347 40.667 -521 122s-331 201.666 -471 360.999
c-52 58.667 -101.833 153.5 -149.5 284.5s-71.5 273.833 -71.5 428.5c0 92 13.167 184.833 39.5 278.5s58.166 176.834 95.499 249.501s71.666 123.334 102.999 152.001c295.333 316.667 617.333 475 966 475c120 0 236.333 -17.833 349 -53.5s215 -89.167 307 -160.5
s165.667 -158.333 221 -261v426h287zM1343 1999c-161.333 0 -311.172 -39.5 -449.505 -118.5s-248.166 -186.333 -329.499 -322s-122 -283.834 -122 -444.501c0 -158.667 41.833 -305.5 125.5 -440.5s195.334 -241.333 335.001 -319s289.5 -116.5 449.5 -116.5
c152.667 0 295.834 39.667 429.501 119s240.167 185.833 319.5 319.5s119 276.834 119 429.501c0 162.667 -38.167 312.667 -114.5 450s-181.666 245.5 -315.999 324.5s-283.166 118.5 -446.499 118.5z" />
    <glyph glyph-name="agrave" unicode="&#x430;" horiz-adv-x="2753" 
d="M2507 2245l0.00195312 -2245h-287v426c-55.333 -103.333 -128.166 -191.166 -218.5 -263.499c-90.333 -72.333 -191.333 -127 -303 -164s-227.167 -55.5 -346.5 -55.5c-173.333 0 -347 40.667 -521 122s-331 201.666 -471 360.999
c-52 58.667 -101.833 153.5 -149.5 284.5s-71.5 273.833 -71.5 428.5c0 92 13.167 184.833 39.5 278.5s58.166 176.834 95.499 249.501s71.666 123.334 102.999 152.001c295.333 316.667 617.333 475 966 475c120 0 236.333 -17.833 349 -53.5s215 -89.167 307 -160.5
s165.667 -158.333 221 -261v426h287zM1343 1999c-161.333 0 -311.172 -39.5 -449.505 -118.5s-248.166 -186.333 -329.499 -322s-122 -283.834 -122 -444.501c0 -158.667 41.833 -305.5 125.5 -440.5s195.334 -241.333 335.001 -319s289.5 -116.5 449.5 -116.5
c152.667 0 295.834 39.667 429.501 119s240.167 185.833 319.5 319.5s119 276.834 119 429.501c0 162.667 -38.167 312.667 -114.5 450s-181.666 245.5 -315.999 324.5s-283.166 118.5 -446.499 118.5z" />
    <glyph glyph-name="aacute" unicode="&#xe1;" horiz-adv-x="2753" 
d="M213 1106l0.000976562 811c0 139.333 4.5 250.666 13.5 334c9 83.333 32.167 165.833 69.5 247.5s97 166.5 179 254.5c68.667 76.667 151.667 142.167 249 196.5s201.333 95.166 312 122.5c110.667 27.333 218.667 41 324 41h958v-287h-983
c-146.667 0 -287.334 -34.667 -422.001 -104s-239.667 -165.666 -315 -288.999c-70.667 -112.667 -106 -284.667 -106 -516v-148c71.333 161.333 190 289.166 356 383.499s339.333 141.5 520 141.5c212 0 408.667 -52.333 590 -157s325 -248.167 431 -430.5
s159 -382.5 159 -600.5c0 -208 -53.667 -401.5 -161 -580.5s-251.833 -320.833 -433.5 -425.5s-376.834 -157 -585.501 -157c-213.333 0 -408.166 49.5 -584.499 148.5s-315.5 237.333 -417.5 415s-153 377.5 -153 599.5zM1368 1999
c-155.333 0 -298.835 -38.833 -430.502 -116.5s-236.167 -182.5 -313.5 -314.5s-116 -275 -116 -429c0 -162 36.833 -312 110.5 -450s176.334 -247.667 308.001 -329s278.834 -122 441.501 -122c158 0 304.5 39.333 439.5 118s241.667 184.5 320 317.5
s117.5 277.167 117.5 432.5c0 160 -38.333 308.833 -115 446.5s-182.167 246.5 -316.5 326.5s-282.833 120 -445.5 120z" />
    <glyph glyph-name="aacute" unicode="&#x431;" horiz-adv-x="2753" 
d="M213 1106l0.000976562 811c0 139.333 4.5 250.666 13.5 334c9 83.333 32.167 165.833 69.5 247.5s97 166.5 179 254.5c68.667 76.667 151.667 142.167 249 196.5s201.333 95.166 312 122.5c110.667 27.333 218.667 41 324 41h958v-287h-983
c-146.667 0 -287.334 -34.667 -422.001 -104s-239.667 -165.666 -315 -288.999c-70.667 -112.667 -106 -284.667 -106 -516v-148c71.333 161.333 190 289.166 356 383.499s339.333 141.5 520 141.5c212 0 408.667 -52.333 590 -157s325 -248.167 431 -430.5
s159 -382.5 159 -600.5c0 -208 -53.667 -401.5 -161 -580.5s-251.833 -320.833 -433.5 -425.5s-376.834 -157 -585.501 -157c-213.333 0 -408.166 49.5 -584.499 148.5s-315.5 237.333 -417.5 415s-153 377.5 -153 599.5zM1368 1999
c-155.333 0 -298.835 -38.833 -430.502 -116.5s-236.167 -182.5 -313.5 -314.5s-116 -275 -116 -429c0 -162 36.833 -312 110.5 -450s176.334 -247.667 308.001 -329s278.834 -122 441.501 -122c158 0 304.5 39.333 439.5 118s241.667 184.5 320 317.5
s117.5 277.167 117.5 432.5c0 160 -38.333 308.833 -115 446.5s-182.167 246.5 -316.5 326.5s-282.833 120 -445.5 120z" />
    <glyph glyph-name="acircumflex" unicode="&#xe2;" horiz-adv-x="2040" 
d="M1548 639c0 184.667 -81.666 307.665 -244.999 368.998c-108.667 38 -275.334 57 -500.001 57h-238v-811h279c8 0 25 -1.33301 51 -4s44.333 -4 55 -4c74.667 0 151 5.83301 229 17.5s132.667 27.5 164 47.5c66.667 42.667 117.5 88.334 152.5 137.001
s52.5 112.334 52.5 191.001zM1417 1647c0 71.333 -11.166 126.168 -33.499 164.501s-57.5 76.166 -105.5 113.499c-80.667 44 -195.334 66 -344.001 66h-369v-680h246c12.667 0 34.667 -1.33301 66 -4s55.666 -4 72.999 -4c140.667 0 247.334 21.667 320.001 65
c98 55.333 147 148.333 147 279zM262.002 0l0.000976562 2245h713c111.333 0 206.5 -7 285.5 -21s155.833 -45.333 230.5 -94c80 -54 143.667 -123.833 191 -209.5s71 -176.834 71 -273.501c0 -176 -84.667 -326.333 -254 -451c117.333 -44 208.166 -116.167 272.499 -216.5
s96.5 -216.5 96.5 -348.5c0 -103.333 -23.833 -201 -71.5 -293s-114.167 -166.333 -199.5 -223c-91.333 -51.333 -181.333 -83.333 -270 -96s-206 -19 -352 -19h-713z" />
    <glyph glyph-name="acircumflex" unicode="&#x432;" horiz-adv-x="2040" 
d="M1548 639c0 184.667 -81.666 307.665 -244.999 368.998c-108.667 38 -275.334 57 -500.001 57h-238v-811h279c8 0 25 -1.33301 51 -4s44.333 -4 55 -4c74.667 0 151 5.83301 229 17.5s132.667 27.5 164 47.5c66.667 42.667 117.5 88.334 152.5 137.001
s52.5 112.334 52.5 191.001zM1417 1647c0 71.333 -11.166 126.168 -33.499 164.501s-57.5 76.166 -105.5 113.499c-80.667 44 -195.334 66 -344.001 66h-369v-680h246c12.667 0 34.667 -1.33301 66 -4s55.666 -4 72.999 -4c140.667 0 247.334 21.667 320.001 65
c98 55.333 147 148.333 147 279zM262.002 0l0.000976562 2245h713c111.333 0 206.5 -7 285.5 -21s155.833 -45.333 230.5 -94c80 -54 143.667 -123.833 191 -209.5s71 -176.834 71 -273.501c0 -176 -84.667 -326.333 -254 -451c117.333 -44 208.166 -116.167 272.499 -216.5
s96.5 -216.5 96.5 -348.5c0 -103.333 -23.833 -201 -71.5 -293s-114.167 -166.333 -199.5 -223c-91.333 -51.333 -181.333 -83.333 -270 -96s-206 -19 -352 -19h-713z" />
    <glyph glyph-name="atilde" unicode="&#xe3;" horiz-adv-x="1614" 
d="M1565 2245v-263h-1000v-1982h-303v2245h1303z" />
    <glyph glyph-name="atilde" unicode="&#x433;" horiz-adv-x="1614" 
d="M1565 2245v-263h-1000v-1982h-303v2245h1303z" />
    <glyph glyph-name="adieresis" unicode="&#xe4;" horiz-adv-x="2376" 
d="M270 0v-451h-303v705h221l836 1991h319l836 -1991h221v-705h-303v451h-1827zM1180 1860l-664 -1598h1335z" />
    <glyph glyph-name="adieresis" unicode="&#x434;" horiz-adv-x="2376" 
d="M270 0v-451h-303v705h221l836 1991h319l836 -1991h221v-705h-303v451h-1827zM1180 1860l-664 -1598h1335z" />
    <glyph glyph-name="aring" unicode="&#xe5;" horiz-adv-x="2654" 
d="M2474 1016l-2032 -0.000976562c6 -139.333 50.167 -268.5 132.5 -387.5s187.833 -213.833 316.5 -284.5s260.334 -106 395.001 -106c111.333 0 220.833 20 328.5 60s203.334 97.333 287.001 172s146.167 161 187.5 259h319c-50.667 -147.333 -131.834 -281 -243.5 -401
c-111.667 -120 -241.5 -214.167 -389.5 -282.5s-300 -102.5 -456 -102.5c-214 0 -411.5 52.5 -592.5 157.5s-324.167 248 -429.5 429s-158 378.5 -158 592.5c0 211.333 52 407 156 587s245.833 322.5 425.5 427.5s376.5 157.5 590.5 157.5c174 0 338.167 -37.667 492.5 -113
s290.5 -182.333 408.5 -321c95.333 -121.333 161.666 -248.166 199 -380.499c37.333 -132.333 58.333 -286.833 63 -463.5zM441.998 1286l1729 -0.00292969c-26.667 132.667 -81.5 253.334 -164.5 362.001s-185.5 194.334 -307.5 257.001s-251.333 94 -388 94
s-267.167 -30.167 -391.5 -90.5s-228.833 -145.166 -313.5 -254.499s-139.334 -232 -164.001 -368z" />
    <glyph glyph-name="aring" unicode="&#x435;" horiz-adv-x="2654" 
d="M2474 1016l-2032 -0.000976562c6 -139.333 50.167 -268.5 132.5 -387.5s187.833 -213.833 316.5 -284.5s260.334 -106 395.001 -106c111.333 0 220.833 20 328.5 60s203.334 97.333 287.001 172s146.167 161 187.5 259h319c-50.667 -147.333 -131.834 -281 -243.5 -401
c-111.667 -120 -241.5 -214.167 -389.5 -282.5s-300 -102.5 -456 -102.5c-214 0 -411.5 52.5 -592.5 157.5s-324.167 248 -429.5 429s-158 378.5 -158 592.5c0 211.333 52 407 156 587s245.833 322.5 425.5 427.5s376.5 157.5 590.5 157.5c174 0 338.167 -37.667 492.5 -113
s290.5 -182.333 408.5 -321c95.333 -121.333 161.666 -248.166 199 -380.499c37.333 -132.333 58.333 -286.833 63 -463.5zM441.998 1286l1729 -0.00292969c-26.667 132.667 -81.5 253.334 -164.5 362.001s-185.5 194.334 -307.5 257.001s-251.333 94 -388 94
s-267.167 -30.167 -391.5 -90.5s-228.833 -145.166 -313.5 -254.499s-139.334 -232 -164.001 -368z" />
    <glyph glyph-name="ae" unicode="&#xe6;" horiz-adv-x="2990" 
d="M1343 0v492l-327 434l-639 -926h-352l811 1163l-754 1082h377l884 -1319v1319h304v-1319l884 1319h377l-754 -1082l812 -1163h-353l-639 926l-327 -434v-492h-304z" />
    <glyph glyph-name="ae" unicode="&#x436;" horiz-adv-x="2990" 
d="M1343 0v492l-327 434l-639 -926h-352l811 1163l-754 1082h377l884 -1319v1319h304v-1319l884 1319h377l-754 -1082l812 -1163h-353l-639 926l-327 -434v-492h-304z" />
    <glyph glyph-name="ccedilla" unicode="&#xe7;" horiz-adv-x="1901" 
d="M893 1073l-130.996 0.00292969v246h139c100.667 0 191.334 32.167 272.001 96.5s121 155.166 121 272.499c0 42 -7.83301 81.833 -23.5 119.5s-38.167 71.167 -67.5 100.5s-62.833 51.833 -100.5 67.5s-77.5 23.5 -119.5 23.5c-100.667 0 -184.5 -28 -251.5 -84
s-100.5 -131.667 -100.5 -227h-303c0 106 28.167 205.667 84.5 299s132.666 167.833 228.999 223.5s199.166 83.5 308.499 83.5c116 0 223.667 -27 323 -81s178.166 -129 236.499 -225s87.5 -204.333 87.5 -325c0 -106.667 -32.667 -205.834 -98 -297.501
s-136.333 -153.5 -213 -185.5c102 -31.333 190.333 -94 265 -188s112 -203.333 112 -328c0 -138.667 -31.5 -263 -94.5 -373s-150.167 -195.5 -261.5 -256.5s-235.666 -91.5 -372.999 -91.5c-118 0 -230.167 31.667 -336.5 95s-191.5 148 -255.5 254s-96 219 -96 339
c0 2.66699 1.33301 8 4 16s4 13.667 4 17h303l-8 -17c0 -110.667 41.833 -206.5 125.5 -287.5s181.167 -121.5 292.5 -121.5c70.667 0 136.167 16 196.5 48s108.166 77 143.499 135s53 122.333 53 193c0 85.333 -24.333 163.166 -73 233.499s-109.834 125.5 -183.501 165.5
s-143.834 60 -210.501 60z" />
    <glyph glyph-name="ccedilla" unicode="&#x437;" horiz-adv-x="1901" 
d="M893 1073l-130.996 0.00292969v246h139c100.667 0 191.334 32.167 272.001 96.5s121 155.166 121 272.499c0 42 -7.83301 81.833 -23.5 119.5s-38.167 71.167 -67.5 100.5s-62.833 51.833 -100.5 67.5s-77.5 23.5 -119.5 23.5c-100.667 0 -184.5 -28 -251.5 -84
s-100.5 -131.667 -100.5 -227h-303c0 106 28.167 205.667 84.5 299s132.666 167.833 228.999 223.5s199.166 83.5 308.499 83.5c116 0 223.667 -27 323 -81s178.166 -129 236.499 -225s87.5 -204.333 87.5 -325c0 -106.667 -32.667 -205.834 -98 -297.501
s-136.333 -153.5 -213 -185.5c102 -31.333 190.333 -94 265 -188s112 -203.333 112 -328c0 -138.667 -31.5 -263 -94.5 -373s-150.167 -195.5 -261.5 -256.5s-235.666 -91.5 -372.999 -91.5c-118 0 -230.167 31.667 -336.5 95s-191.5 148 -255.5 254s-96 219 -96 339
c0 2.66699 1.33301 8 4 16s4 13.667 4 17h303l-8 -17c0 -110.667 41.833 -206.5 125.5 -287.5s181.167 -121.5 292.5 -121.5c70.667 0 136.167 16 196.5 48s108.166 77 143.499 135s53 122.333 53 193c0 85.333 -24.333 163.166 -73 233.499s-109.834 125.5 -183.501 165.5
s-143.834 60 -210.501 60z" />
    <glyph glyph-name="egrave" unicode="&#xe8;" horiz-adv-x="2466" 
d="M614 0h-360v2245h303v-1893l1270 1893h360v-2245h-303v1876z" />
    <glyph glyph-name="egrave" unicode="&#x438;" horiz-adv-x="2466" 
d="M614 0h-360v2245h303v-1893l1270 1893h360v-2245h-303v1876z" />
    <glyph glyph-name="eacute" unicode="&#xe9;" horiz-adv-x="2466" 
d="M614 0h-360v2245h303v-1893l1270 1893h360v-2245h-303v1876zM639 2564v270h1163v-270h-1163z" />
    <glyph glyph-name="eacute" unicode="&#x439;" horiz-adv-x="2466" 
d="M614 0h-360v2245h303v-1893l1270 1893h360v-2245h-303v1876zM639 2564v270h1163v-270h-1163z" />
    <glyph glyph-name="ecircumflex" unicode="&#xea;" horiz-adv-x="2138" 
d="M262 0v2245h303v-1344l1024 1344h393l-868 -1123l926 -1122h-393l-729 885l-353 -459v-426h-303z" />
    <glyph glyph-name="ecircumflex" unicode="&#x43a;" horiz-adv-x="2138" 
d="M262 0v2245h303v-1344l1024 1344h393l-868 -1123l926 -1122h-393l-729 885l-353 -459v-426h-303z" />
    <glyph glyph-name="edieresis" unicode="&#xeb;" horiz-adv-x="2138" 
d="M1303 2245l942 -2245h-328l-778 1860l-770 -1860h-328l942 2245h320z" />
    <glyph glyph-name="edieresis" unicode="&#x43b;" horiz-adv-x="2138" 
d="M1303 2245l942 -2245h-328l-778 1860l-770 -1860h-328l942 2245h320z" />
    <glyph glyph-name="igrave" unicode="&#xec;" horiz-adv-x="2990" 
d="M1606 0h-197l-844 1827v-1827h-303v2245h426l819 -1786l820 1786h426v-2245h-304v1827z" />
    <glyph glyph-name="igrave" unicode="&#x43c;" horiz-adv-x="2990" 
d="M1606 0h-197l-844 1827v-1827h-303v2245h426l819 -1786l820 1786h426v-2245h-304v1827z" />
    <glyph glyph-name="iacute" unicode="&#xed;" horiz-adv-x="2327" 
d="M565 1065v-1065h-303v2245h303v-918h1196v918h303v-2245h-303v1065h-1196z" />
    <glyph glyph-name="iacute" unicode="&#x43d;" horiz-adv-x="2327" 
d="M565 1065v-1065h-303v2245h303v-918h1196v918h303v-2245h-303v1065h-1196z" />
    <glyph glyph-name="icircumflex" unicode="&#xee;" horiz-adv-x="2703" 
d="M1352 2294c153.333 0 300.336 -30.167 441.003 -90.5s265.5 -144.5 374.5 -252.5s194.167 -232.333 255.5 -373s92 -287 92 -439c0 -209.333 -52 -406.166 -156 -590.499s-245.167 -331.333 -423.5 -441s-372.833 -164.5 -583.5 -164.5
c-208.667 0 -403.834 52.333 -585.501 157s-326.167 246.5 -433.5 425.5s-161 372.5 -161 580.5c0 214.667 52.667 413.167 158 595.5s248.666 326.666 429.999 432.999s378.666 159.5 591.999 159.5zM1352 1999c-162.667 0 -311.168 -40.0029 -445.501 -120.003
s-239.833 -188.833 -316.5 -326.5s-115 -286.5 -115 -446.5c0 -155.333 39.333 -299.666 118 -432.999s185.334 -239.166 320.001 -317.499s281 -117.5 439 -117.5c162 0 308.833 40.5 440.5 121.5s234.5 190.667 308.5 329s111 288.5 111 450.5
c0 242.667 -87.333 447.334 -262 614.001c-172.667 164 -372 246 -598 246z" />
    <glyph glyph-name="icircumflex" unicode="&#x43e;" horiz-adv-x="2703" 
d="M1352 2294c153.333 0 300.336 -30.167 441.003 -90.5s265.5 -144.5 374.5 -252.5s194.167 -232.333 255.5 -373s92 -287 92 -439c0 -209.333 -52 -406.166 -156 -590.499s-245.167 -331.333 -423.5 -441s-372.833 -164.5 -583.5 -164.5
c-208.667 0 -403.834 52.333 -585.501 157s-326.167 246.5 -433.5 425.5s-161 372.5 -161 580.5c0 214.667 52.667 413.167 158 595.5s248.666 326.666 429.999 432.999s378.666 159.5 591.999 159.5zM1352 1999c-162.667 0 -311.168 -40.0029 -445.501 -120.003
s-239.833 -188.833 -316.5 -326.5s-115 -286.5 -115 -446.5c0 -155.333 39.333 -299.666 118 -432.999s185.334 -239.166 320.001 -317.499s281 -117.5 439 -117.5c162 0 308.833 40.5 440.5 121.5s234.5 190.667 308.5 329s111 288.5 111 450.5
c0 242.667 -87.333 447.334 -262 614.001c-172.667 164 -372 246 -598 246z" />
    <glyph glyph-name="idieresis" unicode="&#xef;" horiz-adv-x="2327" 
d="M565 1982v-1982h-303v2245h1802v-2245h-303v1982h-1196z" />
    <glyph glyph-name="idieresis" unicode="&#x43f;" horiz-adv-x="2327" 
d="M565 1982v-1982h-303v2245h1802v-2245h-303v1982h-1196z" />
    <glyph glyph-name="eth" unicode="&#xf0;" horiz-adv-x="2843" 
d="M262 2245l287 0.000976562v-385c82.667 137.333 208.5 244 377.5 320s340.833 114 515.5 114c338 0 643.667 -144.667 917 -434c44.667 -42.667 87 -101.834 127 -177.501s72.5 -162.667 97.5 -261s37.5 -200.833 37.5 -307.5c0 -163.333 -31.5 -316.833 -94.5 -460.5
s-150.667 -268.667 -263 -375s-242.166 -188.833 -389.499 -247.5s-302.333 -88 -465 -88c-110.667 0 -222 18.333 -334 55s-213.333 91 -304 163s-159.334 157.667 -206.001 257v-1204h-303v3031zM1417 238.001c164.667 0 315.832 38.168 453.499 114.501
s246.667 181.5 327 315.5s120.5 282.667 120.5 446c0 161.333 -39.167 309.666 -117.5 444.999s-184.666 242.5 -318.999 321.5s-280.833 118.5 -439.5 118.5c-162 0 -312.167 -37 -450.5 -111s-248 -176.833 -329 -308.5s-121.5 -278.5 -121.5 -440.5
c0 -257.333 79 -465 237 -623c177.333 -185.333 390.333 -278 639 -278z" />
    <glyph glyph-name="eth" unicode="&#x440;" horiz-adv-x="2843" 
d="M262 2245l287 0.000976562v-385c82.667 137.333 208.5 244 377.5 320s340.833 114 515.5 114c338 0 643.667 -144.667 917 -434c44.667 -42.667 87 -101.834 127 -177.501s72.5 -162.667 97.5 -261s37.5 -200.833 37.5 -307.5c0 -163.333 -31.5 -316.833 -94.5 -460.5
s-150.667 -268.667 -263 -375s-242.166 -188.833 -389.499 -247.5s-302.333 -88 -465 -88c-110.667 0 -222 18.333 -334 55s-213.333 91 -304 163s-159.334 157.667 -206.001 257v-1204h-303v3031zM1417 238.001c164.667 0 315.832 38.168 453.499 114.501
s246.667 181.5 327 315.5s120.5 282.667 120.5 446c0 161.333 -39.167 309.666 -117.5 444.999s-184.666 242.5 -318.999 321.5s-280.833 118.5 -439.5 118.5c-162 0 -312.167 -37 -450.5 -111s-248 -176.833 -329 -308.5s-121.5 -278.5 -121.5 -440.5
c0 -257.333 79 -465 237 -623c177.333 -185.333 390.333 -278 639 -278z" />
    <glyph glyph-name="ntilde" unicode="&#xf1;" horiz-adv-x="2703" 
d="M2154 655l336 0.00292969c-68.667 -145.333 -157.334 -271.333 -266 -378c-108.667 -106.667 -233.667 -189 -375 -247s-290.666 -87 -447.999 -87c-166.667 0 -324.167 29.167 -472.5 87.5s-279.833 141.166 -394.5 248.499s-203.667 233.166 -267 377.499
s-95 299.5 -95 465.5c0 216 55.5 413.667 166.5 593s259.667 320.666 446 423.999s386.166 155 599.499 155c157.333 0 310.5 -29.667 459.5 -89s280 -144.333 393 -255s197.5 -239 253.5 -385h-336c-77.333 131.333 -185.5 236.5 -324.5 315.5s-284.5 118.5 -436.5 118.5
c-164 0 -316.5 -37.667 -457.5 -113s-253 -179.5 -336 -312.5s-124.5 -280.833 -124.5 -443.5c0 -164.667 39.5 -315 118.5 -451s187 -243.5 324 -322.5s287.167 -118.5 450.5 -118.5c322 0 584 139 786 417z" />
    <glyph glyph-name="ntilde" unicode="&#x441;" horiz-adv-x="2703" 
d="M2154 655l336 0.00292969c-68.667 -145.333 -157.334 -271.333 -266 -378c-108.667 -106.667 -233.667 -189 -375 -247s-290.666 -87 -447.999 -87c-166.667 0 -324.167 29.167 -472.5 87.5s-279.833 141.166 -394.5 248.499s-203.667 233.166 -267 377.499
s-95 299.5 -95 465.5c0 216 55.5 413.667 166.5 593s259.667 320.666 446 423.999s386.166 155 599.499 155c157.333 0 310.5 -29.667 459.5 -89s280 -144.333 393 -255s197.5 -239 253.5 -385h-336c-77.333 131.333 -185.5 236.5 -324.5 315.5s-284.5 118.5 -436.5 118.5
c-164 0 -316.5 -37.667 -457.5 -113s-253 -179.5 -336 -312.5s-124.5 -280.833 -124.5 -443.5c0 -164.667 39.5 -315 118.5 -451s187 -243.5 324 -322.5s287.167 -118.5 450.5 -118.5c322 0 584 139 786 417z" />
    <glyph glyph-name="ograve" unicode="&#xf2;" horiz-adv-x="1663" 
d="M33 2245h1581v-263h-639v-1982h-303v1982h-639v263z" />
    <glyph glyph-name="ograve" unicode="&#x442;" horiz-adv-x="1663" 
d="M33 2245h1581v-263h-639v-1982h-303v1982h-639v263z" />
    <glyph glyph-name="oacute" unicode="&#xf3;" horiz-adv-x="2138" 
d="M1835 2245h328l-1295 -3031h-319l352 860l-860 2171h319l721 -1786z" />
    <glyph glyph-name="oacute" unicode="&#x443;" horiz-adv-x="2138" 
d="M1835 2245h328l-1295 -3031h-319l352 860l-860 2171h319l721 -1786z" />
    <glyph glyph-name="ocircumflex" unicode="&#xf4;" horiz-adv-x="4268" 
d="M2277 3031v-1163c50 92 115.5 170 196.5 234s170 112 267 144s196.5 48 298.5 48c320 0 601.333 -144.667 844 -434c62.667 -65.333 118 -167.666 166 -306.999s72 -285.666 72 -438.999c0 -164 -29.833 -317.667 -89.5 -461s-142.167 -268 -247.5 -374
s-226 -188.5 -362 -247.5s-277.333 -88.5 -424 -88.5c-152 0 -295.833 36.333 -431.5 109s-226.5 172.667 -272.5 300l-17 -8v-1130h-303v1130l-16 8c-32 -86.667 -84.667 -160.667 -158 -222s-158 -107.833 -254 -139.5s-193.667 -47.5 -293 -47.5
c-146 0 -286.833 29.5 -422.5 88.5s-256 141.5 -361 247.5s-187.667 230.667 -248 374s-90.5 297 -90.5 461c0 153.333 23.833 299.166 71.5 437.499s103.167 241.166 166.5 308.499c242.667 289.333 523.667 434 843 434c155.333 0 302.5 -36.5 441.5 -109.5
s245.833 -178.5 320.5 -316.5v1163h303zM1237 238c205.333 0 388.332 92.668 548.999 278.001c136.667 160 205 367.667 205 623c0 162.667 -34.5 309.667 -103.5 441s-164 234 -285 308s-253.833 111 -398.5 111c-141.333 0 -271.166 -39.5 -389.499 -118.5
s-211.333 -186.333 -279 -322s-101.5 -283.834 -101.5 -444.501c0 -162 35.5 -310.5 106.5 -445.5s167.5 -240.5 289.5 -316.5s257.667 -114 407 -114zM3015 238.001c148 0 283.166 38.001 405.499 114.001s219 181.5 290 316.5s106.5 283.5 106.5 445.5
c0 160.667 -33.667 309 -101 445s-160 243.333 -278 322s-248.333 118 -391 118c-145.333 0 -278.166 -37 -398.499 -111s-215 -176.667 -284 -308s-103.5 -278.333 -103.5 -441c0 -256.667 68.333 -464.334 205 -623.001c159.333 -185.333 342.333 -278 549 -278z" />
    <glyph glyph-name="ocircumflex" unicode="&#x444;" horiz-adv-x="4268" 
d="M2277 3031v-1163c50 92 115.5 170 196.5 234s170 112 267 144s196.5 48 298.5 48c320 0 601.333 -144.667 844 -434c62.667 -65.333 118 -167.666 166 -306.999s72 -285.666 72 -438.999c0 -164 -29.833 -317.667 -89.5 -461s-142.167 -268 -247.5 -374
s-226 -188.5 -362 -247.5s-277.333 -88.5 -424 -88.5c-152 0 -295.833 36.333 -431.5 109s-226.5 172.667 -272.5 300l-17 -8v-1130h-303v1130l-16 8c-32 -86.667 -84.667 -160.667 -158 -222s-158 -107.833 -254 -139.5s-193.667 -47.5 -293 -47.5
c-146 0 -286.833 29.5 -422.5 88.5s-256 141.5 -361 247.5s-187.667 230.667 -248 374s-90.5 297 -90.5 461c0 153.333 23.833 299.166 71.5 437.499s103.167 241.166 166.5 308.499c242.667 289.333 523.667 434 843 434c155.333 0 302.5 -36.5 441.5 -109.5
s245.833 -178.5 320.5 -316.5v1163h303zM1237 238c205.333 0 388.332 92.668 548.999 278.001c136.667 160 205 367.667 205 623c0 162.667 -34.5 309.667 -103.5 441s-164 234 -285 308s-253.833 111 -398.5 111c-141.333 0 -271.166 -39.5 -389.499 -118.5
s-211.333 -186.333 -279 -322s-101.5 -283.834 -101.5 -444.501c0 -162 35.5 -310.5 106.5 -445.5s167.5 -240.5 289.5 -316.5s257.667 -114 407 -114zM3015 238.001c148 0 283.166 38.001 405.499 114.001s219 181.5 290 316.5s106.5 283.5 106.5 445.5
c0 160.667 -33.667 309 -101 445s-160 243.333 -278 322s-248.333 118 -391 118c-145.333 0 -278.166 -37 -398.499 -111s-215 -176.667 -284 -308s-103.5 -278.333 -103.5 -441c0 -256.667 68.333 -464.334 205 -623.001c159.333 -185.333 342.333 -278 549 -278z" />
    <glyph glyph-name="otilde" unicode="&#xf5;" horiz-adv-x="1991" 
d="M33 0l770 1139l-770 1106h360l590 -869l598 869h352l-770 -1106l770 -1139h-352l-598 901l-590 -901h-360z" />
    <glyph glyph-name="otilde" unicode="&#x445;" horiz-adv-x="1991" 
d="M33 0l770 1139l-770 1106h360l590 -869l598 869h352l-770 -1106l770 -1139h-352l-598 901l-590 -901h-360z" />
    <glyph glyph-name="odieresis" unicode="&#xf6;" horiz-adv-x="2417" 
d="M565 262h1196v1983h303v-1991h295v-705h-303v451h-1794v2245h303v-1983z" />
    <glyph glyph-name="odieresis" unicode="&#x446;" horiz-adv-x="2417" 
d="M565 262h1196v1983h303v-1991h295v-705h-303v451h-1794v2245h303v-1983z" />
    <glyph glyph-name="divide" unicode="&#xf7;" horiz-adv-x="2089" 
d="M442 1425c0 -78.667 21.667 -137.833 65 -177.5s101 -59.5 173 -59.5h860v1057h303v-2245h-303v926h-926c-142 0 -256.667 43.667 -344 131s-131 207.333 -131 360v828h303v-820z" />
    <glyph glyph-name="divide" unicode="&#x447;" horiz-adv-x="2089" 
d="M442 1425c0 -78.667 21.667 -137.833 65 -177.5s101 -59.5 173 -59.5h860v1057h303v-2245h-303v926h-926c-142 0 -256.667 43.667 -344 131s-131 207.333 -131 360v828h303v-820z" />
    <glyph glyph-name="oslash" unicode="&#xf8;" horiz-adv-x="3269" 
d="M565 262h918v1983h303v-1983h934v1983h303v-2245h-2761v2245h303v-1983z" />
    <glyph glyph-name="oslash" unicode="&#x448;" horiz-adv-x="3269" 
d="M565 262h918v1983h303v-1983h934v1983h303v-2245h-2761v2245h303v-1983z" />
    <glyph glyph-name="ugrave" unicode="&#xf9;" horiz-adv-x="3367" 
d="M565 262h918v1983h303v-1983h934v1983h303v-1991h295v-705h-303v451h-2753v2245h303v-1983z" />
    <glyph glyph-name="ugrave" unicode="&#x449;" horiz-adv-x="3367" 
d="M565 262h918v1983h303v-1983h934v1983h303v-1991h295v-705h-303v451h-2753v2245h303v-1983z" />
    <glyph glyph-name="uacute" unicode="&#xfa;" horiz-adv-x="2327" 
d="M606 1982h-573v263h876v-926h336c146.667 0 264.834 -6.5 354.501 -19.5s179.167 -44.833 268.5 -95.5c180 -119.333 270 -294 270 -524c0 -116.667 -23.833 -226 -71.5 -328s-113.834 -181 -198.501 -237c-92 -51.333 -180.833 -83.333 -266.5 -96
s-204.5 -19 -356.5 -19h-639v1982zM909 1065l-0.000976562 -811.001h205c268 0 434.667 19 500 57c142 81.333 213 199 213 353c0 81.333 -17.167 146.333 -51.5 195s-82.833 95.334 -145.5 140.001c-65.333 44 -193.666 66 -384.999 66h-336z" />
    <glyph glyph-name="uacute" unicode="&#x44a;" horiz-adv-x="2327" 
d="M606 1982h-573v263h876v-926h336c146.667 0 264.834 -6.5 354.501 -19.5s179.167 -44.833 268.5 -95.5c180 -119.333 270 -294 270 -524c0 -116.667 -23.833 -226 -71.5 -328s-113.834 -181 -198.501 -237c-92 -51.333 -180.833 -83.333 -266.5 -96
s-204.5 -19 -356.5 -19h-639v1982zM909 1065l-0.000976562 -811.001h205c268 0 434.667 19 500 57c142 81.333 213 199 213 353c0 81.333 -17.167 146.333 -51.5 195s-82.833 95.334 -145.5 140.001c-65.333 44 -193.666 66 -384.999 66h-336z" />
    <glyph glyph-name="ucircumflex" unicode="&#xfb;" horiz-adv-x="2703" 
d="M565 1065v-811h279c267.333 0 433.666 19 498.999 57c142 81.333 213 199 213 353c0 81.333 -17 146 -51 194s-82.333 95 -145 141c-65.333 44 -193.666 66 -384.999 66h-410zM565 1319h410c146 0 263.833 -6.5 353.5 -19.5s179.167 -44.833 268.5 -95.5
c180.667 -120 271 -294.667 271 -524c0 -115.333 -24 -224.333 -72 -327s-114.333 -182 -199 -238c-92 -51.333 -180.667 -83.333 -266 -96s-204 -19 -356 -19h-713v2245h303v-926zM2417 2245v-2245h-303v2245h303z" />
    <glyph glyph-name="ucircumflex" unicode="&#x44b;" horiz-adv-x="2703" 
d="M565 1065v-811h279c267.333 0 433.666 19 498.999 57c142 81.333 213 199 213 353c0 81.333 -17 146 -51 194s-82.333 95 -145 141c-65.333 44 -193.666 66 -384.999 66h-410zM565 1319h410c146 0 263.833 -6.5 353.5 -19.5s179.167 -44.833 268.5 -95.5
c180.667 -120 271 -294.667 271 -524c0 -115.333 -24 -224.333 -72 -327s-114.333 -182 -199 -238c-92 -51.333 -180.667 -83.333 -266 -96s-204 -19 -356 -19h-713v2245h303v-926zM2417 2245v-2245h-303v2245h303z" />
    <glyph glyph-name="udieresis" unicode="&#xfc;" horiz-adv-x="2089" 
d="M565 1065v-811h279c267.333 0 433.666 19 498.999 57c142 81.333 213 199 213 353c0 81.333 -17 146 -51 194s-82.333 95 -145 141c-65.333 44 -193.666 66 -384.999 66h-410zM565 1319h410c146 0 263.833 -6.5 353.5 -19.5s179.167 -44.833 268.5 -95.5
c180.667 -120 271 -294.667 271 -524c0 -115.333 -24 -224.333 -72 -327s-114.333 -182 -199 -238c-92 -51.333 -180.667 -83.333 -266 -96s-204 -19 -356 -19h-713v2245h303v-926z" />
    <glyph glyph-name="udieresis" unicode="&#x44c;" horiz-adv-x="2089" 
d="M565 1065v-811h279c267.333 0 433.666 19 498.999 57c142 81.333 213 199 213 353c0 81.333 -17 146 -51 194s-82.333 95 -145 141c-65.333 44 -193.666 66 -384.999 66h-410zM565 1319h410c146 0 263.833 -6.5 353.5 -19.5s179.167 -44.833 268.5 -95.5
c180.667 -120 271 -294.667 271 -524c0 -115.333 -24 -224.333 -72 -327s-114.333 -182 -199 -238c-92 -51.333 -180.667 -83.333 -266 -96s-204 -19 -356 -19h-713v2245h303v-926z" />
    <glyph glyph-name="yacute" unicode="&#xfd;" horiz-adv-x="2654" 
d="M2163 1016l-1205 -0.00195312v270h1196c-17.333 103.333 -53 199.333 -107 288s-121.667 164.667 -203 228s-172.666 112 -273.999 146s-207 51 -317 51c-99.333 0 -197.833 -17.833 -295.5 -53.5s-187.167 -86.5 -268.5 -152.5s-147 -142 -197 -228h-336
c56 146 140.5 274.333 253.5 385s244 195.667 393 255s302.167 89 459.5 89c213.333 0 413.166 -51.667 599.499 -155s335 -244.666 446 -423.999s166.5 -377 166.5 -593c0 -166.667 -31.667 -322.167 -95 -466.5s-152.166 -270 -266.5 -377
c-114.333 -107 -245.666 -189.667 -393.999 -248s-306.166 -87.5 -473.499 -87.5c-157.333 0 -306.666 29 -447.999 87s-266.333 140.333 -375 247s-197.334 232.667 -266.001 378h336c202 -278 464 -417 786 -417c149.333 0 288.333 33.833 417 101.5
s234.167 161.334 316.5 281.001s132.833 251.5 151.5 395.5z" />
    <glyph glyph-name="yacute" unicode="&#x44d;" horiz-adv-x="2654" 
d="M2163 1016l-1205 -0.00195312v270h1196c-17.333 103.333 -53 199.333 -107 288s-121.667 164.667 -203 228s-172.666 112 -273.999 146s-207 51 -317 51c-99.333 0 -197.833 -17.833 -295.5 -53.5s-187.167 -86.5 -268.5 -152.5s-147 -142 -197 -228h-336
c56 146 140.5 274.333 253.5 385s244 195.667 393 255s302.167 89 459.5 89c213.333 0 413.166 -51.667 599.499 -155s335 -244.666 446 -423.999s166.5 -377 166.5 -593c0 -166.667 -31.667 -322.167 -95 -466.5s-152.166 -270 -266.5 -377
c-114.333 -107 -245.666 -189.667 -393.999 -248s-306.166 -87.5 -473.499 -87.5c-157.333 0 -306.666 29 -447.999 87s-266.333 140.333 -375 247s-197.334 232.667 -266.001 378h336c202 -278 464 -417 786 -417c149.333 0 288.333 33.833 417 101.5
s234.167 161.334 316.5 281.001s132.833 251.5 151.5 395.5z" />
    <glyph glyph-name="thorn" unicode="&#xfe;" horiz-adv-x="3654" 
d="M565 1327l573.998 0.000976562c34.667 180.667 107.334 345 218.001 493s248.334 264 413.001 348s342 126 532 126c203.333 0 394.666 -52.833 574 -158.5c179.333 -105.667 322.333 -247.834 429 -426.501s160 -368.667 160 -570
c0 -209.333 -52 -406.166 -156 -590.499s-245.167 -331.333 -423.5 -441s-372.833 -164.5 -583.5 -164.5c-203.333 0 -394.333 50.667 -573 152s-322.5 238.166 -431.5 410.499s-167.5 358.833 -175.5 559.5h-557v-1065h-303v2245h303v-918zM2302 1999
c-162.667 0 -311.167 -40.001 -445.5 -120.001s-239.833 -188.833 -316.5 -326.5s-115 -286.5 -115 -446.5c0 -155.333 39.167 -299.5 117.5 -432.5s185 -238.833 320 -317.5s281.5 -118 439.5 -118c162.667 0 309.834 40.667 441.5 122c131.667 81.333 234.334 191 308 329
c73.667 138 110.5 288 110.5 450c0 242.667 -87.333 447.334 -262 614.001c-172.667 164 -372 246 -598 246z" />
    <glyph glyph-name="thorn" unicode="&#x44e;" horiz-adv-x="3654" 
d="M565 1327l573.998 0.000976562c34.667 180.667 107.334 345 218.001 493s248.334 264 413.001 348s342 126 532 126c203.333 0 394.666 -52.833 574 -158.5c179.333 -105.667 322.333 -247.834 429 -426.501s160 -368.667 160 -570
c0 -209.333 -52 -406.166 -156 -590.499s-245.167 -331.333 -423.5 -441s-372.833 -164.5 -583.5 -164.5c-203.333 0 -394.333 50.667 -573 152s-322.5 238.166 -431.5 410.499s-167.5 358.833 -175.5 559.5h-557v-1065h-303v2245h303v-918zM2302 1999
c-162.667 0 -311.167 -40.001 -445.5 -120.001s-239.833 -188.833 -316.5 -326.5s-115 -286.5 -115 -446.5c0 -155.333 39.167 -299.5 117.5 -432.5s185 -238.833 320 -317.5s281.5 -118 439.5 -118c162.667 0 309.834 40.667 441.5 122c131.667 81.333 234.334 191 308 329
c73.667 138 110.5 288 110.5 450c0 242.667 -87.333 447.334 -262 614.001c-172.667 164 -372 246 -598 246z" />
    <glyph glyph-name="ydieresis" unicode="&#xff;" horiz-adv-x="2040" 
d="M1221 1180l-713 -1180h-328l598 934c-126.667 18 -233 53.333 -319 106c-180.667 120.667 -271 295.667 -271 525c0 116 23.833 225 71.5 327s114.167 181.333 199.5 238c90.667 51.333 179.167 83.333 265.5 96s205.166 19 356.499 19h713v-2245h-303v1991h-279
c-267.333 0 -433.666 -19.333 -498.999 -58c-142 -80 -213 -197.333 -213 -352c0 -78.667 16.833 -142.334 50.5 -191.001s82.167 -97 145.5 -145c74.667 -49.333 203 -74 385 -74c14 0 36.833 1.5 68.5 4.5s55.5 4.5 71.5 4.5z" />
    <glyph glyph-name="ydieresis" unicode="&#x44f;" horiz-adv-x="2040" 
d="M1221 1180l-713 -1180h-328l598 934c-126.667 18 -233 53.333 -319 106c-180.667 120.667 -271 295.667 -271 525c0 116 23.833 225 71.5 327s114.167 181.333 199.5 238c90.667 51.333 179.167 83.333 265.5 96s205.166 19 356.499 19h713v-2245h-303v1991h-279
c-267.333 0 -433.666 -19.333 -498.999 -58c-142 -80 -213 -197.333 -213 -352c0 -78.667 16.833 -142.334 50.5 -191.001s82.167 -97 145.5 -145c74.667 -49.333 203 -74 385 -74c14 0 36.833 1.5 68.5 4.5s55.5 4.5 71.5 4.5z" />
    <glyph glyph-name="dotlessi" unicode="&#x131;" 
 />
    <glyph glyph-name="Lslash" unicode="&#x141;" 
 />
    <glyph glyph-name="lslash" unicode="&#x142;" 
 />
    <glyph glyph-name="OE" unicode="&#x152;" 
 />
    <glyph glyph-name="oe" unicode="&#x153;" 
 />
    <glyph glyph-name="Scaron" unicode="&#x160;" 
 />
    <glyph glyph-name="scaron" unicode="&#x161;" 
 />
    <glyph glyph-name="Ydieresis" unicode="&#x178;" horiz-adv-x="2040" 
d="M1221 1180l-713 -1180h-328l598 934c-126.667 18 -233 53.333 -319 106c-180.667 120.667 -271 295.667 -271 525c0 116 23.833 225 71.5 327s114.167 181.333 199.5 238c90.667 51.333 179.167 83.333 265.5 96s205.166 19 356.499 19h713v-2245h-303v1991h-279
c-267.333 0 -433.666 -19.333 -498.999 -58c-142 -80 -213 -197.333 -213 -352c0 -78.667 16.833 -142.334 50.5 -191.001s82.167 -97 145.5 -145c74.667 -49.333 203 -74 385 -74c14 0 36.833 1.5 68.5 4.5s55.5 4.5 71.5 4.5z" />
    <glyph glyph-name="Zcaron" unicode="&#x17d;" 
 />
    <glyph glyph-name="zcaron" unicode="&#x17e;" 
 />
    <glyph glyph-name="florin" unicode="&#x192;" 
 />
    <glyph glyph-name="circumflex" unicode="&#x2c6;" horiz-adv-x="2515" 
d="M336 737h-262l1048 2294h238l1048 -2294h-262l-909 1983z" />
    <glyph glyph-name="caron" unicode="&#x2c7;" 
 />
    <glyph glyph-name="breve" unicode="&#x2d8;" 
 />
    <glyph glyph-name="dotaccent" unicode="&#x2d9;" 
 />
    <glyph glyph-name="ring" unicode="&#x2da;" 
 />
    <glyph glyph-name="ogonek" unicode="&#x2db;" 
 />
    <glyph glyph-name="tilde" unicode="&#x2dc;" horiz-adv-x="2564" 
d="M2105 1606l172.002 -197c-167.333 -300.667 -361 -451 -581 -451c-34 0 -75.5 6.16699 -124.5 18.5s-92.333 25.5 -130 39.5s-93.167 36.333 -166.5 67s-118.666 49.334 -135.999 56.001c-92 36.667 -158.833 62.167 -200.5 76.5s-89.5 21.5 -143.5 21.5
c-92.667 0 -167 -30.5 -223 -91.5s-121 -153.5 -195 -277.5l-164 197c78 145.333 162.167 262.166 252.5 350.499s200.166 132.5 329.499 132.5c66 0 137.667 -12.5 215 -37.5s173.666 -63 288.999 -114s198.833 -86.167 250.5 -105.5s100.5 -29 146.5 -29
c145.333 0 281.666 114.667 408.999 344z" />
    <glyph glyph-name="hungarumlaut" unicode="&#x2dd;" 
 />
    <glyph glyph-name="emdash" unicode="&#x2013;" horiz-adv-x="2466" 
d="M106 1368h2048v-270h-2048v270z" />
    <glyph glyph-name="endash" unicode="&#x2014;" horiz-adv-x="4317" 
d="M98 1368h4096v-270h-4096v270z" />
    <glyph glyph-name="quoteleft" unicode="&#x2018;" horiz-adv-x="1516" 
d="M1065 2236h-303l-361 795h304z" />
    <glyph glyph-name="quoteright" unicode="&#x2019;" 
d="M377 2236l360 795h303l-360 -795h-303z" />
    <glyph glyph-name="quotesinglbase" unicode="&#x201a;" 
 />
    <glyph glyph-name="quotedblleft" unicode="&#x201c;" horiz-adv-x="2179" 
d="M1663 2236h-303l-361 795h304zM1057 2236h-303l-361 795h303z" />
    <glyph glyph-name="quotedblright" unicode="&#x201d;" horiz-adv-x="2138" 
d="M360 2236l345 795h303l-361 -795h-287zM950 2236l361 795h303l-361 -795h-303z" />
    <glyph glyph-name="quotedblbase" unicode="&#x201e;" 
 />
    <glyph glyph-name="dagger" unicode="&#x2020;" 
 />
    <glyph glyph-name="daggerdbl" unicode="&#x2021;" 
 />
    <glyph glyph-name="bullet" unicode="&#x2022;" horiz-adv-x="2466" 
d="M1999 1229c0 -134.667 -33.832 -259.835 -101.499 -375.502s-160 -207.667 -277 -276s-244.833 -102.5 -383.5 -102.5c-134 0 -259 34.167 -375 102.5s-208.167 160.5 -276.5 276.5s-102.5 241 -102.5 375c0 138.667 34.167 266.5 102.5 383.5s160.333 209.333 276 277
s240.834 101.5 375.501 101.5c105.333 0 204.666 -19.333 297.999 -58s174.666 -92.667 243.999 -162s123.333 -150.666 162 -243.999s58 -192.666 58 -297.999z" />
    <glyph glyph-name="ellipsis" unicode="&#x2026;" 
 />
    <glyph glyph-name="perthousand" unicode="&#x2030;" 
 />
    <glyph glyph-name="guilsinglleft" unicode="&#x2039;" horiz-adv-x="2605" 
d="M590 1237l1696 -786v-295l-2081 950v262l2081 950v-303z" />
    <glyph glyph-name="guilsinglright" unicode="&#x203a;" horiz-adv-x="2515" 
d="M197 451l1695 786l-1695 778v303l2089 -950v-262l-2089 -950v295z" />
    <glyph glyph-name="fraction" unicode="&#x2044;" horiz-adv-x="1802" 
d="M164 -524l1188 3555h278l-1196 -3555h-270z" />
    <glyph glyph-name="trademark" unicode="&#x2122;" 
 />
    <glyph glyph-name="minus" unicode="&#x2212;" horiz-adv-x="1376" 
d="M131 1368h1106v-270h-1106v270z" />
    <glyph glyph-name="fi" unicode="&#xf001;" 
 />
    <glyph glyph-name="fl" unicode="&#xf002;" 
 />
    <glyph glyph-name=".null" horiz-adv-x="0" 
 />
    <glyph glyph-name="nonmarkingreturn" horiz-adv-x="0" 
 />
  </font>
</defs>
</svg>
